<?xml version="1.0" encoding="windows-1252" standalone="no"?>
<svg width="800" height="370" viewBox="0 0 800 370" fill="none" xmlns="http://www.w3.org/2000/svg">
<g clip-path="url(#clip0_1_2)">
<rect width="800" height="370" fill="#A8BCDA"/>
<path d="M212.566 369.467C209.436 368.296 208.561 367.149 209.304 365.193C209.649 364.287 210.31 363.546 210.774 363.546C211.239 363.546 213.27 364.614 215.29 365.919C217.309 367.224 219.778 368.589 220.776 368.951L222.592 369.61L220.358 369.659C219.13 369.685 217.328 369.823 216.353 369.964C215.379 370.106 213.675 369.882 212.566 369.467V369.467ZM205.463 363.455C204.873 363.125 203.891 363.014 203.279 363.208C202.509 363.452 201.914 363.088 201.345 362.023C200.892 361.178 200.081 360.334 199.542 360.149C198.306 359.724 195.715 355.526 194.273 351.612C193.544 349.635 192.565 348.268 191.402 347.607C189.338 346.433 189.191 345.901 190.788 345.394C192.615 344.814 192.955 341.593 191.417 339.433C190.683 338.402 190.296 337.191 190.518 336.615C190.779 335.935 190.058 334.741 188.314 332.964C186.112 330.721 185.705 329.905 185.607 327.541C185.543 326.011 185.171 324.373 184.779 323.901C184.286 323.307 184.185 321.173 184.451 316.955C184.74 312.384 184.572 309.563 183.776 305.63C182.595 299.79 181.992 288.91 182.299 278.983C182.364 276.865 182.09 273.957 181.689 272.521C180.712 269.024 176.219 264.61 170.667 261.692C166.695 259.605 166.137 259.07 164.584 255.865C163.644 253.923 161.847 251.022 160.591 249.417C159.335 247.812 157.97 245.456 157.557 244.18C156.246 240.131 153.935 236.063 152.36 235.031C151.522 234.482 150.565 233.054 150.235 231.857C149.701 229.921 149.841 229.381 151.515 226.949C153.329 224.312 153.35 224.205 152.124 223.884C149.112 223.097 150.379 219.07 155.786 212.247C159.38 207.711 160.433 204.256 159.437 200.265C159.058 198.744 158.718 197.153 158.682 196.729C158.646 196.306 158.376 195.959 158.082 195.959C157.788 195.959 157.844 195.404 158.208 194.724C158.768 193.678 158.626 193.379 157.28 192.766C155.319 191.872 152.357 192.756 152.345 194.238C152.331 196.016 151.55 196.147 148.972 194.803C147.591 194.084 146.157 193.495 145.785 193.495C145.413 193.495 143.966 192.51 142.57 191.307C141.173 190.104 139.684 188.846 139.26 188.511C138.837 188.175 138.49 187.262 138.49 186.481C138.49 185.699 137.946 184.568 137.281 183.966C136.616 183.364 135.754 181.909 135.366 180.733C134.856 179.187 134.474 178.781 133.988 179.267C132.972 180.282 131.47 180.089 127.822 178.476C125.915 177.633 123.928 176.193 123.135 175.078C122.377 174.014 120.93 172.716 119.919 172.193C118.25 171.33 117.832 171.337 115.401 172.265L112.722 173.288L104.504 169.306C99.4485 166.856 95.525 164.519 94.3098 163.234C92.4255 161.241 92.3646 161.025 92.9916 158.555C93.5659 156.292 93.4684 155.592 92.2192 153.011C91.4328 151.387 89.7146 148.892 88.4011 147.467C87.0875 146.041 86.1619 144.634 86.3443 144.339C86.5266 144.044 85.6013 142.055 84.288 139.92C82.7961 137.494 81.7432 134.895 81.4816 132.993C81.1463 130.555 80.7556 129.809 79.5188 129.246C78.2077 128.648 77.8411 128.724 77.0904 129.75C76.0331 131.194 76.3337 132.719 78.6714 137.771C79.6214 139.824 80.6032 142.867 80.8531 144.534C81.1031 146.201 81.8413 148.611 82.4937 149.889C84.0388 152.918 83.0411 152.865 80.6045 149.788C79.1673 147.974 78.7792 146.978 79.0648 145.84C79.3698 144.625 79.0695 144.04 77.5758 142.936C75.3104 141.261 74.831 140.18 75.6631 138.626C76.1484 137.719 75.9259 136.724 74.6935 134.293C73.442 131.823 73.1802 130.626 73.4901 128.792C73.9966 125.794 72.6515 123.081 70.144 122.042C68.6962 121.442 68.1972 120.772 67.9022 119.029C67.6935 117.796 67.2937 115.888 67.0139 114.789C66.7228 113.646 66.744 112.644 67.0634 112.447C67.3705 112.257 67.1696 111.412 66.617 110.568C65.8031 109.326 65.7473 108.738 66.3236 107.473C66.7148 106.615 66.8625 105.633 66.6517 105.292C66.441 104.951 66.9662 103.932 67.8188 103.028C68.6715 102.124 69.8067 100.32 70.3415 99.0198C70.8763 97.7197 72.5243 95.3096 74.0038 93.6641C75.4833 92.0185 77.3589 89.1361 78.1718 87.2586C79.3002 84.6525 79.9617 83.8424 80.9677 83.8344C81.6925 83.8289 82.2471 84.1705 82.2 84.5941C82.0039 86.3592 83.3996 85.8154 84.9673 83.5158C85.8914 82.1603 86.39 80.9589 86.0753 80.8459C85.7606 80.733 85.5031 80.2231 85.5031 79.7128C85.5031 79.2025 84.2276 77.5453 82.6687 76.0302C80.083 73.5172 79.9169 73.184 80.7767 72.234C81.4733 71.4642 81.5552 70.8994 81.0907 70.0693C80.2743 68.6106 81.5625 65.3437 82.9593 65.3306C83.5362 65.3251 83.7009 65.1288 83.3467 64.8685C82.552 64.2847 82.192 62.9588 82.3036 61.0271C82.4819 57.942 81.8068 56.6515 79.5131 55.6932C78.2759 55.1762 76.3881 54.0855 75.318 53.2693C74.2479 52.453 72.8902 51.7852 72.3009 51.7852C71.7116 51.7852 69.0329 51.2244 66.3483 50.5389C62.0321 49.4369 61.2714 49.3934 59.7762 50.1629C56.6778 51.7576 53.3951 52.4076 52.0568 51.6913C51.0529 51.1541 49.9574 51.4859 46.1374 53.484C43.5593 54.8326 40.4795 56.1453 39.2935 56.401C38.1074 56.6568 35.8376 57.5208 34.2494 58.3211C29.7446 60.591 23.2914 62.8792 21.5064 62.8395C20.3544 62.8139 21.1333 62.3086 24.1983 61.0932C29.4074 59.0275 34.76 56.3374 35.2551 55.5363C35.8649 54.5496 34.5412 54.1956 32.9512 54.9201C31.7805 55.4535 31.059 55.4036 29.7081 54.6958L27.9707 53.7854L29.8607 52.8081C31.9971 51.7033 32.6692 50.4534 32.1783 48.4976C31.7029 46.6035 34.3241 45.2117 39.9708 44.3601C43.0049 43.9025 45.3114 43.1408 46.8643 42.0837C49.6027 40.2196 49.1323 38.8107 46.1798 40.0337C44.7821 40.6126 43.764 40.6189 41.6941 40.0616C39.1786 39.3842 39.089 39.2875 40.2142 38.4648C42.0969 37.0882 45.9906 36.2601 48.5489 36.6924C50.1678 36.9659 51.4938 36.7744 52.8547 36.0706L54.8213 35.0537L53.5267 33.6757C52.8147 32.9178 52.2322 32.1348 52.2322 31.9356C52.2322 31.364 55.9413 30.2207 57.7959 30.2207C58.7216 30.2207 61.2593 29.5506 63.4353 28.7316C65.6112 27.9125 70.6314 26.7944 74.5913 26.2468C81.0138 25.3586 82.3739 25.3478 87.1898 26.1463C90.1592 26.6387 94.2522 27.2259 96.2854 27.4512C98.3186 27.6766 101.917 28.3919 104.283 29.0408C109.776 30.548 113.354 30.5296 119.491 28.9627C122.201 28.2708 124.94 27.8702 125.578 28.0726C126.215 28.275 127.3 28.1396 127.987 27.7716C128.934 27.2647 129.669 27.326 131.021 28.0249C132.242 28.6563 133.749 28.8366 135.801 28.5965C137.966 28.3432 139.862 28.6055 142.63 29.5414C144.737 30.2539 147.077 30.8368 147.83 30.8368C149.165 30.8368 149.169 30.8595 148.004 31.717C146.861 32.558 146.858 32.6166 147.931 33.0324C148.549 33.2717 150.693 33.2963 152.696 33.0869C156.313 32.7089 156.344 32.7195 157.353 34.67L158.368 36.6337L159.686 34.9806C160.444 34.0306 162.244 32.9545 163.918 32.4505C166.449 31.6889 167.217 31.6914 169.759 32.4698C171.553 33.0193 173.7 33.2195 175.309 32.9872C177.357 32.6914 178.308 32.8756 179.644 33.8271C181.331 35.0282 181.377 35.0289 182.874 33.8693C183.709 33.2222 185.427 32.4044 186.692 32.0519C189.72 31.2082 190.747 29.4102 188.929 28.1363C187.643 27.2355 187.699 27.1668 191.079 25.5087C193.601 24.2721 194.736 23.9913 195.228 24.4828C195.719 24.9742 195.714 25.5148 195.209 26.4578C194.349 28.0651 195.42 30.4946 196.762 29.9798C197.244 29.7947 198.044 29.7989 198.54 29.989C199.318 30.2877 199.305 30.541 198.448 31.8497C196.079 35.4652 201.39 34.4408 204.985 30.5887C206.447 29.0227 208.712 28.5478 210.835 29.3624C212.206 29.8885 212.077 30.3192 209.807 32.8086C207.101 35.7752 205.717 36.382 201.653 36.382C199.689 36.382 197.371 36.8075 196.29 37.3662C194.795 38.1395 194.066 38.2038 192.886 37.6664C190.687 36.6644 189.921 37.4984 191.499 39.1775L192.845 40.6108L190.159 41.3733C188.681 41.7926 186.225 42.1763 184.7 42.2258C182.488 42.2977 181.926 42.5377 181.923 43.4119C181.92 44.1599 180.844 44.9472 178.534 45.8914C171.05 48.9509 164.7 54.4672 166.999 55.9135C167.43 56.1845 168.114 57.161 168.518 58.0835C168.985 59.1459 169.884 59.8868 170.97 60.1043C171.913 60.2932 174.349 61.2669 176.382 62.2681C178.415 63.2694 180.911 64.2699 181.927 64.4914C184.726 65.1014 184.751 65.1656 183.447 68.4727C182.332 71.302 182.309 71.7057 183.174 73.3769C183.692 74.3786 184.455 75.1883 184.87 75.1763C186.889 75.1179 188.782 73.2547 189.958 70.1684C191.079 67.2267 191.59 66.678 194.807 64.9594C199.556 62.4229 201.531 59.9248 201.005 57.1196C200.662 55.2924 200.84 54.8637 202.404 53.75C203.39 53.0482 204.695 51.3686 205.304 50.0174C206.666 46.9973 208.854 45.9504 212.544 46.5537C215.817 47.0887 219.687 49.1665 220.155 50.6394C220.347 51.244 220.187 52.3298 219.8 53.0523C219.215 54.1467 219.325 54.6087 220.463 55.8196L221.829 57.2732L224.059 56.1173C225.285 55.4815 227.251 54.2413 228.427 53.3613L230.565 51.7612L231.068 53.1193C231.344 53.8662 231.422 54.8621 231.242 55.3324C231.062 55.8026 231.202 56.7255 231.554 57.3832C231.95 58.1231 231.981 58.9599 231.635 59.5782C231.244 60.2753 231.505 61.3341 232.497 63.0799C233.917 65.5809 233.918 65.5829 232.67 66.4567C231.028 67.6065 232.082 68.8259 233.883 67.8616C235.673 66.904 237.721 67.0285 238.984 68.1718C240.852 69.8617 239.299 71.8835 234.342 74.2155C228.951 76.752 226.548 77.2544 219.511 77.3167C214.315 77.3626 213.627 77.5283 208.575 79.9501C205.61 81.3715 203.184 82.7784 203.184 83.0765C203.184 84.3478 204.118 84.2372 207.703 82.5414C209.815 81.5422 212.537 80.744 213.834 80.7438C216.048 80.7433 216.129 80.8118 215.437 82.104C215.037 82.8525 214.173 83.8991 213.517 84.4299C212.487 85.2643 212.427 85.6165 213.072 87.0323C214.039 89.1555 216.565 90.1771 219.587 89.6672L221.976 89.2643L220.139 90.5311C219.129 91.2279 217.466 91.9788 216.442 92.1998C215.419 92.4207 213.316 93.2392 211.769 94.0186C210.199 94.8098 208.621 95.2285 208.197 94.9665C207.222 94.3639 208.252 93.4598 211.419 92.1362C214.237 90.9589 213.787 89.7083 210.75 90.2779C209.567 90.4998 205.732 91.9444 202.228 93.4881C196.757 95.8977 195.803 96.534 195.484 97.984C195.093 99.7663 193.757 100.609 189.062 102.038C187.564 102.494 185.623 103.595 184.749 104.485C183.875 105.376 182.201 106.709 181.029 107.447C179.858 108.186 178.736 109.481 178.536 110.324C178.208 111.714 178.131 111.747 177.72 110.677C176.949 108.67 175.787 110.632 175.72 114.052C175.652 117.557 173.875 119.948 169.979 121.779C165.984 123.656 160.299 128.091 159.147 130.23C158.131 132.118 158.088 132.854 158.714 137.707C159.299 142.235 159.264 143.371 158.495 144.858C157.921 145.969 157.25 146.5 156.693 146.286C155.371 145.779 153.754 140.339 154.207 137.923C154.522 136.245 154.313 135.609 153.063 134.434C152.055 133.488 151.125 133.128 150.334 133.379C149.674 133.588 147.808 133.191 146.185 132.495C143.698 131.429 142.905 131.34 141.13 131.926C139.926 132.323 138.73 133.265 138.339 134.124C137.756 135.403 137.37 135.567 135.761 135.221C134.721 134.997 133.121 134.432 132.205 133.964C129.952 132.813 128.69 132.893 126.158 134.349C124.977 135.028 122.568 136.327 120.804 137.236C118.776 138.281 117.383 139.471 117.018 140.469C116.7 141.337 115.564 144.723 114.494 147.993L112.547 153.938L113.541 157.776C115.368 164.826 117.91 166.937 123.206 165.801C127.199 164.945 129.597 163.21 130.478 160.539C131.038 158.843 131.642 158.282 133.449 157.78C136.169 157.025 137.305 156.997 138.35 157.66C139.212 158.207 138.909 159.107 135.049 167.465C132.4 173.2 132.591 173.713 137.129 173.058C141.263 172.462 145.042 172.919 145.484 174.07C145.656 174.518 145.376 177.545 144.862 180.795C143.942 186.61 143.949 186.74 145.273 188.882C146.013 190.08 147.401 191.465 148.357 191.959C149.883 192.748 150.362 192.747 152.283 191.944C155.334 190.669 156.992 190.804 159.111 192.5C160.806 193.856 161.045 193.894 162.377 193.021C163.168 192.503 164.246 191.22 164.774 190.169C165.963 187.799 167.968 186.133 169.651 186.115C170.355 186.107 171.581 185.408 172.377 184.561C173.994 182.84 176.84 182.28 175.449 183.956C174.281 185.363 173.614 189.887 174.366 191.293C174.993 192.463 175.043 192.457 176.183 191.049C176.995 190.046 177.158 189.404 176.715 188.96C175.656 187.902 175.975 187.022 177.944 185.566C179.989 184.055 181.57 184.21 183.334 186.095C184.628 187.477 191.534 189.346 193.514 188.849C196.528 188.092 204.673 193.044 207.733 197.494C209.19 199.613 213.845 201.746 215.892 201.232C220.103 200.175 225.875 204.394 227.225 209.514C227.627 211.039 228.234 212.459 228.572 212.67C229.471 213.23 228.125 215.443 225.181 218.243C223.301 220.032 222.852 220.803 223.381 221.332C223.91 221.861 224.779 221.397 226.868 219.472C229.905 216.673 230.918 216.388 232.44 217.91C233.365 218.836 233.337 219.024 232.068 220.374C231.313 221.179 230.258 221.854 229.724 221.876C229.161 221.898 229.389 222.169 230.265 222.518C231.468 222.999 232.096 222.864 233.345 221.855C236.598 219.226 237.363 219.1 240.253 220.714C242.132 221.764 242.884 222.563 242.789 223.408C242.526 225.757 243.08 226.278 244.709 225.21C246.004 224.362 246.892 224.322 251.223 224.915C255.831 225.546 256.434 225.797 258.645 228.008C260.286 229.649 262.132 230.728 264.451 231.402C267.565 232.308 267.903 232.584 268.468 234.681C269.287 237.721 268.327 241.096 265.733 244.301C264.625 245.67 263.266 247.68 262.714 248.767C262.162 249.855 260.988 251.467 260.105 252.349C258.611 253.844 258.528 254.218 258.9 257.766C259.628 264.698 256.237 277.63 252.967 280.396C251.902 281.296 250.991 281.508 249.303 281.246C247.915 281.031 246.887 281.17 246.616 281.609C246.375 282 245.029 282.824 243.626 283.441C242.223 284.058 240.135 285.366 238.985 286.348C236.995 288.048 236.928 288.236 237.598 290.265C238.37 292.605 237.85 295.375 236.195 297.738C235.66 298.502 235.222 299.802 235.222 300.626C235.222 301.451 234.58 302.983 233.794 304.032C233.008 305.08 231.493 307.481 230.426 309.366C227.801 314.004 226.223 314.807 222.418 313.443C219.116 312.26 217.355 312.118 217.355 313.037C217.355 313.383 218.013 313.966 218.818 314.333C219.622 314.699 220.876 316.192 221.604 317.649C222.688 319.819 222.802 320.573 222.237 321.813C221.362 323.734 218.016 325.346 214.906 325.346C212.151 325.346 211.467 326.02 212.419 327.798C213.006 328.896 212.611 330.661 211.475 332.015C211.383 332.125 210.418 331.755 209.331 331.193C206.736 329.851 205.818 330.705 207.129 333.242C207.663 334.273 208.677 335.3 209.383 335.525C210.597 335.91 210.61 335.995 209.623 337.086C209.049 337.721 208.75 338.685 208.96 339.23C209.185 339.817 208.683 341.084 207.73 342.332C206.182 344.362 206.16 344.503 207.153 346.018C207.72 346.884 208.605 347.755 209.12 347.952C210.975 348.664 211.283 351.097 209.868 353.87C208.451 356.649 208.233 359.434 209.331 360.756C210.328 361.958 206.972 364.299 205.463 363.455H205.463ZM160.055 96.6034C161.701 93.1634 164.764 90.6013 167.231 90.6013C169.007 90.6013 169.028 90.8895 167.402 92.9564L166.124 94.5817L167.435 95.6438C168.492 96.4996 169.037 96.5735 170.242 96.0246C171.065 95.6499 171.908 94.8074 172.115 94.1524C172.398 93.2611 172.858 93.053 173.943 93.3252C174.947 93.5773 175.576 93.3616 175.989 92.6232C177.241 90.3862 174.055 87.5252 171.71 88.7804C170.032 89.6785 167.839 87.8917 168.307 86.0073C168.481 85.3089 168.124 84.0933 167.506 83.2778C166.232 81.597 164.295 81.42 160.055 82.5971C158.53 83.0204 156.791 83.3478 156.191 83.3246C155.59 83.3014 155.26 83.5428 155.457 83.8612C155.653 84.1795 155.59 84.4462 155.316 84.4537C155.042 84.4612 154.128 84.9975 153.284 85.6454L151.751 86.8234L153.473 87.478C154.819 87.9897 155.612 87.9167 157.108 87.1436C158.865 86.235 159.19 86.2355 161.108 87.1499C162.263 87.7007 163.84 87.9836 164.638 87.7831C165.432 87.5839 166.252 87.696 166.459 88.0323C166.672 88.376 165.804 88.8184 164.477 89.0425C160.871 89.6517 158.998 91.1532 156.383 95.5304C154.198 99.1865 154.073 99.6274 154.944 100.594C155.798 101.542 156.034 101.557 157.206 100.737C157.926 100.234 159.207 98.3738 160.055 96.6035V96.6034ZM171.249 100.406C173.442 99.2875 173.653 99.0065 172.88 98.2336C172.107 97.4606 171.619 97.511 169.104 98.6233C166.152 99.9294 165.215 101.692 167.473 101.692C168.164 101.692 169.863 101.113 171.249 100.406ZM182.173 95.7509C183.457 94.852 183.504 94.6756 182.599 94.1692C181.267 93.4235 177.306 94.7083 177.306 95.8862C177.306 97.0998 180.369 97.0147 182.173 95.7509ZM228.445 361.821C228.445 361.55 228.778 360.995 229.184 360.589C229.591 360.182 229.691 359.849 229.406 359.849C229.122 359.849 228.556 360.304 228.15 360.86C227.567 361.658 227.164 361.726 226.234 361.187C225.569 360.801 225.408 360.495 225.863 360.484C226.306 360.474 226.498 360.188 226.288 359.849C225.886 359.199 226.944 359.021 229.985 359.229C232.7 359.415 232.973 359.811 231.295 361.131C229.732 362.36 228.445 362.672 228.445 361.821V361.821ZM742.994 346.358C741.231 345.241 744.902 342.775 754.003 338.962C756.544 337.897 760.417 335.67 762.609 334.013C766.336 331.196 766.645 331.074 767.384 332.128C768.505 333.729 767.844 334.888 765.105 336.123C763.797 336.713 762.152 337.857 761.449 338.665C760.747 339.472 759.616 340.133 758.937 340.133C758.258 340.133 756.662 341.067 755.391 342.208C751.037 346.115 745.523 347.961 742.994 346.358ZM699.874 338.354C699.233 337.948 699.198 337.531 699.72 336.555C700.093 335.857 700.399 334.417 700.399 333.355C700.399 331.619 700.539 331.474 701.786 331.912C702.548 332.18 704.142 332.436 705.328 332.48C706.514 332.525 707.699 332.601 707.961 332.65C708.982 332.842 706.253 335.949 703.801 337.386C700.88 339.098 701.001 339.068 699.874 338.354V338.354ZM771.07 332.966C770.855 332.752 771.363 332.039 772.198 331.382C773.455 330.393 773.602 329.976 773.052 328.948C772.257 327.462 773.438 325.867 776.174 324.734C778.294 323.856 778.828 322.074 778.259 317.774C777.868 314.816 777.916 314.631 778.869 315.42C779.618 316.039 779.802 316.818 779.535 318.241C779.243 319.8 779.505 320.61 780.806 322.155C782.21 323.825 782.628 324.006 783.72 323.421C784.81 322.838 784.937 322.891 784.594 323.785C784.374 324.36 784.193 324.94 784.193 325.073C784.193 325.206 783.292 325.776 782.19 326.34C781.089 326.904 778.94 328.395 777.415 329.654C774.936 331.702 772.384 333.356 771.705 333.356C771.57 333.356 771.284 333.181 771.07 332.966V332.966ZM705.917 325.008C704.619 323.628 704.379 323.574 703.133 324.391C701.544 325.432 698.56 324.824 696.167 322.972C694.891 321.984 694.802 321.665 695.461 320.436C696.022 319.386 696.041 318.651 695.534 317.538C695.16 316.718 694.854 315.505 694.854 314.843C694.854 313.35 693.885 313.279 693.083 314.713C692.752 315.303 692.306 315.61 692.09 315.394C691.874 315.178 692.588 313.988 693.676 312.749C696.353 309.7 695.308 308.872 691.772 311.24C690.248 312.261 688.902 313.376 688.782 313.718C688.661 314.06 687.929 313.004 687.154 311.371C686.315 309.601 684.864 307.822 683.561 306.963C681.603 305.674 680.94 305.567 677.179 305.942C671.664 306.491 666.342 307.851 662.86 309.601C661.276 310.397 658.187 311.212 655.805 311.462C653.473 311.706 649.766 312.584 647.566 313.412C644.201 314.679 643.243 314.812 641.539 314.249C639.252 313.494 638.302 311.939 639.781 311.371C640.317 311.166 641.289 309.752 641.942 308.229C642.986 305.792 643.044 305.033 642.424 301.884C641.912 299.279 641.898 296.812 642.372 292.801C642.73 289.773 642.867 286.699 642.677 285.97C642.486 285.241 642.784 283.457 643.338 282.005C644.316 279.445 644.553 279.278 651.163 276.479C654.912 274.891 658.749 273.591 659.69 273.591C662.237 273.591 665.39 271.169 667.129 267.876C668.203 265.841 668.948 265.067 669.593 265.316C671.393 266.011 671.748 265.875 671.609 264.541C671.52 263.683 671.889 263.058 672.622 262.826C673.257 262.624 674.429 261.502 675.227 260.332C676.044 259.135 677.725 257.785 679.073 257.244C681.322 256.341 681.546 256.354 682.77 257.467C685.027 259.518 686.627 260.117 687.391 259.197C687.762 258.749 687.89 258.207 687.675 257.991C686.969 257.286 690.196 253.237 691.774 252.848C692.621 252.639 694.36 251.944 695.639 251.304C697.633 250.305 698.334 250.238 700.568 250.838C705.385 252.131 705.545 252.343 703.753 255.05C701.449 258.532 702.06 259.894 707.712 263.872C710.321 265.708 712.784 267.101 713.186 266.968C713.587 266.834 714.856 265.428 716.006 263.843C717.572 261.683 718.18 260.112 718.431 257.572C718.788 253.964 720.514 248.946 721.398 248.946C721.69 248.946 722.361 250.43 722.888 252.244C723.416 254.057 724.52 256.174 725.343 256.947C727.267 258.754 728.384 263.807 727.521 266.793C726.948 268.771 727.059 269.089 729.02 271.106C730.185 272.304 732.027 275.224 733.113 277.596C734.199 279.968 736.158 283.325 737.466 285.055L739.844 288.2L739.168 293.06C738.678 296.586 737.919 298.936 736.403 301.621C734.08 305.734 730.609 309.659 728.778 310.239C728.12 310.448 726.595 311.992 725.39 313.67C724.185 315.348 722.927 316.721 722.596 316.721C722.264 316.721 720.855 318.16 719.464 319.92C717.143 322.855 716.716 323.124 714.299 323.169C712.444 323.204 711.023 323.707 709.5 324.869L707.336 326.52L705.917 325.008H705.917ZM405.481 312.054C404.176 310.749 403.958 310.082 404.249 308.285C404.524 306.594 404.262 305.599 403.09 303.874C402.258 302.65 401.577 301.346 401.577 300.977C401.577 300.609 400.488 298.847 399.156 297.062C397.098 294.304 396.675 293.202 396.335 289.712C395.737 283.553 393.77 276.888 391.127 272.057C389.828 269.682 388.58 266.598 388.354 265.204C387.872 262.237 389.077 257.823 391.827 252.474L393.656 248.915L392.628 245.821C392.053 244.089 391.772 242.041 391.991 241.171C392.246 240.153 391.971 238.94 391.195 237.658C390.543 236.581 389.574 234.175 389.043 232.311C388.333 229.821 387.343 228.203 385.313 226.211C381.408 222.38 380.901 220.872 382.113 216.703C384.58 208.216 381.914 203.267 375.403 204.243C372.868 204.623 372.771 204.576 372.413 202.785C372.138 201.411 371.394 200.602 369.523 199.648C367.093 198.409 366.053 198.404 363.069 199.619C362.391 199.895 359.619 200.852 356.908 201.745C352.831 203.088 351.608 203.261 349.833 202.747C348.152 202.259 346.736 202.385 343.296 203.329C339.742 204.304 338.454 204.409 336.533 203.879C332.526 202.772 325.641 196.566 324.661 193.178C323.903 190.556 319.19 184.446 317.586 184.005C316.567 183.726 316.441 183.509 317.065 183.106C317.693 182.701 317.584 182.496 316.603 182.24C315.046 181.832 314.891 180.56 316.397 180.547C317.319 180.539 317.341 180.45 316.551 179.94C315.969 179.564 315.905 179.339 316.376 179.333C316.866 179.327 316.68 178.567 315.84 177.144C314.658 175.141 314.633 174.877 315.536 173.879C318.293 170.833 318.897 164.275 316.801 160.143C315.801 158.171 316.444 155.446 318.579 152.613C319.383 151.547 320.952 148.951 322.066 146.846C324.015 143.163 328.36 138.043 329.536 138.043C330.837 138.043 335.035 133.53 335.035 132.131C335.035 128.972 336.924 125.823 340.002 123.848C341.656 122.786 343.595 120.971 344.31 119.814C345.772 117.448 345.979 117.371 347.683 118.558C348.351 119.024 350.012 119.592 351.374 119.82C353.45 120.169 354.443 119.918 357.535 118.264C362.855 115.419 366.143 114.709 372.23 115.088C376.245 115.339 378.052 115.179 379.998 114.4C382.864 113.253 385.341 113.932 384.671 115.68C384.469 116.205 384.592 116.982 384.944 117.406C385.387 117.94 385.384 118.705 384.933 119.89C384.367 121.379 384.492 121.823 385.895 123.287C386.783 124.213 388.372 125.144 389.426 125.355C394.378 126.345 395.786 126.986 396.808 128.717C397.557 129.985 398.54 130.636 400.163 130.941C401.426 131.178 403.259 131.785 404.237 132.291C405.898 133.15 406.114 133.119 407.499 131.818C408.43 130.943 408.853 130.016 408.634 129.328C408.443 128.725 408.589 127.667 408.958 126.976C409.911 125.195 412.618 125.37 416.844 127.485C421.448 129.79 430.179 131.435 433.274 130.58C434.763 130.169 436.194 130.164 437.498 130.564C441.755 131.873 443.935 130.849 444.516 127.267C444.709 126.078 445.039 125.105 445.249 125.105C445.647 125.105 445.855 123.316 445.913 119.405C445.932 118.135 446.232 117.095 446.581 117.095C446.995 117.095 446.975 116.649 446.521 115.801C445.764 114.385 444.227 114.417 440.549 115.926C438.805 116.642 438.32 116.612 436.758 115.689C434.732 114.492 432.653 114.312 432.053 115.283C431.607 116.004 428.457 115.498 426.748 114.431C425.521 113.665 424.374 111.383 424.374 109.707C424.374 109.065 423.75 108.1 422.988 107.562C421.807 106.731 421.739 106.496 422.525 105.981C423.034 105.648 424.079 105.524 424.849 105.705C425.831 105.936 426.733 105.55 427.873 104.41C428.945 103.338 430.249 102.746 431.71 102.668C432.928 102.604 434.691 102.045 435.629 101.427C437.665 100.086 442.287 100.458 445.874 102.253C450.71 104.674 455.005 104.532 456.734 101.893C457.633 100.521 457.638 100.233 456.784 98.93C456.264 98.1363 453.766 96.3079 451.233 94.8667L446.628 92.2464L447.491 90.5778C447.965 89.66 448.198 88.7538 448.008 88.564C447.819 88.3741 447.891 87.8538 448.17 87.4076C448.448 86.9615 448.73 86.2385 448.797 85.8009C448.938 84.8677 447.945 85.1253 443.045 87.2922C440.2 88.5502 439.778 88.9356 440.409 89.6959C440.822 90.1939 441.75 90.6136 442.471 90.6286C443.482 90.6496 443.243 90.9402 441.423 91.9002C439.214 93.0657 438.968 93.0809 437.531 92.1398C436.303 91.3351 436.142 90.9607 436.725 90.2593C437.302 89.5632 437.216 89.2953 436.304 88.9524C435.672 88.7153 434.859 88.1249 434.495 87.6405C432.73 85.2883 427.131 91.4762 425.503 97.5785C424.739 100.443 424.764 100.592 426.203 101.677L427.696 102.804L424.957 103.369C423.45 103.679 421.419 103.715 420.444 103.449C418.645 102.958 416.364 103.698 416.364 104.775C416.364 105.091 415.945 105.189 415.432 104.992C414.919 104.795 414.106 104.962 413.624 105.362C412.876 105.982 412.961 106.491 414.2 108.821C415.542 111.345 415.583 111.691 414.746 113.369C413.697 115.472 412.721 115.315 411.24 112.807C410.207 111.058 410.213 111.018 411.58 110.824C413.305 110.579 413.416 109.481 411.743 109.213C407.926 108.603 405.89 106.591 405.89 103.43C405.89 100.963 403.603 98.2431 400.83 97.4122C399.389 96.9805 397.822 96.0739 397.348 95.3976C396.875 94.7213 395.488 93.7505 394.267 93.2404C393.046 92.7303 391.68 91.7882 391.231 91.1469C390.586 90.2264 390.162 90.1156 389.218 90.6209C388.56 90.9728 388.022 91.6574 388.022 92.142C388.022 93.7417 395.875 100.979 399.714 102.917C403.784 104.971 404.42 105.705 401.592 105.084C399.071 104.53 398.384 105.084 399.247 106.977C399.852 108.306 399.753 108.711 398.535 109.881L397.119 111.242L397.441 109.406C397.953 106.493 394.111 102.308 390.926 102.308C389.758 102.308 385.272 97.9559 384.096 95.6832C382.841 93.2548 381.443 92.7856 379.464 94.1279C376.482 96.1499 374.246 96.8335 371.907 96.4383C368.799 95.9133 366.844 96.9969 367.34 98.9697C367.598 99.9996 367.454 100.459 366.873 100.459C366.411 100.459 365.228 101.152 364.243 101.999C363.258 102.846 362.241 103.539 361.982 103.539C361.22 103.54 359.069 107.433 359.066 108.816C359.064 110.139 356.655 112.744 354.33 113.939C353.589 114.319 351.866 114.63 350.501 114.63C348.621 114.63 347.851 114.94 347.336 115.903C346.661 117.165 346.64 117.162 345.061 115.583C343.58 114.101 342.727 113.73 339.737 113.268C338.167 113.025 337.902 109.469 339.076 104.404C339.579 102.238 339.825 99.8116 339.624 99.0112C339.04 96.6851 340.868 95.3133 343.925 95.783C350.985 96.8674 355.115 96.9273 356.083 95.9594C357.413 94.6294 358.013 90.243 357.201 87.7835C356.671 86.1794 355.943 85.5236 353.771 84.6939C350.576 83.4736 350.508 82.2932 353.632 82.2619C354.822 82.2499 356.539 81.7532 357.447 81.158C358.356 80.5629 359.36 80.2374 359.68 80.4348C360.551 80.9731 363.849 79.0721 364.944 77.4004C365.473 76.5925 366.516 75.7762 367.26 75.5864C368.005 75.3966 370 73.95 371.695 72.3717C374.097 70.1341 375.357 69.4326 377.417 69.1867C379.969 68.8821 382.535 66.7837 381.33 65.9867C380.581 65.4913 379.956 62.5079 380.373 61.4212C380.57 60.9063 381.443 60.0194 382.311 59.4503L383.89 58.4156L383.485 60.9508C383.133 63.1512 383.223 63.4621 384.165 63.3047C384.761 63.205 385.878 62.7784 386.645 62.3567C387.814 61.7147 388.1 61.746 388.408 62.5488C388.936 63.9247 387.468 65.5426 386.455 64.7016C385.895 64.2371 385.54 64.2539 385.227 64.7598C384.905 65.2816 384.653 65.2533 384.282 64.6535C384.004 64.2036 383.635 63.9768 383.462 64.1497C383.289 64.3226 383.782 65.2591 384.557 66.2309C385.863 67.869 386.112 67.9467 387.973 67.2978C389.568 66.742 390.333 66.7799 391.691 67.4818C393.223 68.2743 393.74 68.2365 396.686 67.1174C399.266 66.1369 400.283 66.0112 401.426 66.5315C402.476 67.0103 403.255 67.0004 404.231 66.496C407.002 65.064 407.77 63.9842 407.426 62.0022C406.916 59.0643 407.85 58.102 410.31 59.0306C411.984 59.6624 412.473 59.6373 413.229 58.8808C414.03 58.0797 413.962 57.7838 412.649 56.3865C411.386 55.042 411.297 54.7079 412.067 54.1883C412.567 53.8514 414.438 53.7306 416.227 53.92C419.499 54.2667 423.577 52.9883 422.866 51.8386C422.244 50.8318 418.488 50.5408 415.306 51.253C412.484 51.8845 411.743 51.8335 409.58 50.8581C406.221 49.3432 405.825 47.5708 408.129 44.3593C411.095 40.2257 411.637 38.9084 410.792 37.8904C409.541 36.3831 408.312 36.8745 405.455 40.0249C403.944 41.6896 401.887 43.3922 400.882 43.8084C399.877 44.2247 398.634 45.3791 398.119 46.3738C397.281 47.9938 397.283 48.3332 398.132 49.629C398.653 50.4247 399.642 51.254 400.328 51.472C402.218 52.0718 401.844 53.1978 399.141 55.0475C398.31 55.6164 397.201 57.2259 396.677 58.6242C396.02 60.3763 395.022 61.5719 393.464 62.4709C391.269 63.7382 391.17 63.7431 389.957 62.6454C389.27 62.024 388.541 60.7566 388.338 59.8289C388.134 58.9013 387.209 57.2336 386.281 56.1229L384.596 54.1036L382.458 55.4066C381.282 56.1233 379.766 56.7046 379.088 56.6983C377.133 56.6802 374.87 54.5682 374.718 52.6206C374.643 51.6529 374.391 50.3864 374.159 49.8062C373.607 48.4262 376.366 45.838 379.233 45.0464C382.111 44.2519 387.947 40.1615 388.942 38.2423C389.384 37.3886 390.883 35.6707 392.273 34.4247C393.663 33.1787 394.8 31.8847 394.8 31.5491C394.8 31.2134 396.117 30.4695 397.726 29.8959C399.336 29.3223 402.039 28.2816 403.733 27.5832C405.814 26.7257 408.415 26.2724 411.743 26.1873C417.559 26.0385 421.362 26.8094 424.5 28.7728C426.075 29.758 427.317 30.0941 428.506 29.8563C430.634 29.4309 441.973 32.9457 442.446 34.1769C442.921 35.4145 439.668 36.5826 436.87 36.1796C435.588 35.995 432.938 35.5014 430.98 35.0827C428.344 34.519 427.24 34.5013 426.727 35.0142C426.215 35.5271 426.471 35.9057 427.715 36.4725C428.639 36.8936 429.796 38.0131 430.286 38.9605C431.533 41.3725 435.528 43.3388 437.589 42.5552C439.57 41.8022 439.556 41.5648 437.467 40.4312C435.534 39.3828 436.426 39.1561 438.853 40.0789C440.791 40.8157 442.986 39.8991 442.475 38.5667C442.236 37.9426 442.909 37.4921 444.809 37.0054C448.874 35.9638 449.171 35.8149 448.834 34.9906C447.559 31.8726 447.541 31.9622 449.396 32.1741C450.386 32.2871 451.11 32.7106 451.027 33.129C450.946 33.5424 451.462 34.1925 452.174 34.5735C453.244 35.1459 454.087 34.942 457.028 33.4005C461.34 31.1401 464.697 30.4032 465.949 31.4422C466.647 32.0215 467.805 32.0256 471.155 31.4605C473.525 31.0608 475.733 30.9002 476.061 31.1035C476.39 31.3068 476.841 31.1792 477.063 30.8199C477.549 30.0343 476.206 28.2518 475.471 28.7061C474.584 29.2545 471.67 28.272 472.303 27.6381C472.942 26.9998 490.088 30.9953 491.114 32.0215C491.806 32.7132 493.996 31.7904 493.996 30.8072C493.996 30.4758 492.773 29.6106 491.279 28.8845C486.645 26.6331 486.347 23.0273 490.705 21.9336C493.235 21.2987 494.328 22.031 497.827 26.7014C502.369 32.765 502.253 32.4565 500.769 34.5404C499.67 36.0835 499.604 36.4447 500.366 36.7372C501.811 37.2915 504.902 35.3519 505.337 33.6183C505.847 31.5871 504.895 29.8559 502.622 28.6804C500.835 27.7563 499.541 26.0629 499.541 24.6475C499.541 24.1651 500.212 24.0448 501.544 24.2881C503.541 24.6529 505.193 23.9286 509.716 20.705C510.751 19.9678 512.499 19.482 514.263 19.442C517.839 19.3609 518.997 18.7605 517.967 17.5204C517.564 17.0341 517.362 16.5079 517.519 16.3511C518.306 15.5642 528.449 14.1463 530.785 14.4966C533.033 14.8337 533.729 14.6514 535.578 13.2408C536.768 12.3332 537.741 11.3463 537.741 11.0476C537.741 10.2945 532.357 10.3618 531.888 11.1208C531.243 12.1651 530.406 11.8017 530.642 10.5793C530.84 9.54717 530.319 9.37922 525.831 9.0298C513.577 8.07566 512.581 7.85176 514.051 6.38163C515.343 5.08908 518.513 5.11414 521.167 6.43787C522.254 6.98025 524.055 7.42401 525.169 7.42401C526.283 7.42401 527.366 7.70126 527.575 8.04013C527.785 8.379 528.864 8.65626 529.973 8.65626C533.046 8.65626 538.988 9.98358 538.615 10.5868C538.433 10.8805 539.008 11.1208 539.892 11.1208C540.776 11.1208 542.387 11.5982 543.471 12.1818C544.93 12.9666 546.967 13.249 551.296 13.2663C555.95 13.2849 557.497 13.5239 558.844 14.4326C559.776 15.0611 560.534 15.7514 560.529 15.9666C560.525 16.1818 559.103 17.1401 557.369 18.0963C553.184 20.4053 554.069 21.4117 559.131 20.0999C562.41 19.2502 563.164 19.2447 565.879 20.051C568.106 20.7125 569.497 20.7974 571.007 20.3641C572.515 19.9316 574.063 20.0245 576.69 20.7051C579.43 21.4152 580.85 21.4874 582.587 21.005C586.551 19.9042 591.427 20.2151 594.256 21.749C595.663 22.5115 598.256 23.9223 600.019 24.8841C603.144 26.589 603.281 26.6078 605.448 25.6359C607.263 24.8224 608.275 24.7544 610.952 25.2661C613.612 25.7746 614.58 25.7126 616.078 24.9379C617.544 24.18 617.78 23.8074 617.22 23.1334C616.139 21.8299 619.977 21.3453 624.693 22.19C626.853 22.5769 629.591 22.963 630.777 23.0482C631.963 23.1333 634.28 23.8092 635.926 24.5501C638.437 25.6801 640.331 25.9361 647.677 26.1379C654.646 26.3293 656.865 26.6082 658.546 27.5043C660.253 28.4139 662.198 28.6452 668.669 28.7083C674.621 28.7663 677.289 29.0486 679.054 29.8076C681.905 31.0326 683.045 30.5833 681.494 28.8465C680.378 27.5971 680.384 27.5954 684.688 28.0229C691.9 28.7394 700.551 30.3176 703.48 31.451C705.005 32.0412 707.911 32.727 709.939 32.975C711.966 33.223 714.924 34.0844 716.512 34.8892C718.923 36.1108 719.706 36.2458 721.254 35.7061C723.371 34.9682 724.745 35.4996 727.977 38.3075L729.986 40.0522L728.472 40.4322C726.953 40.8134 722.919 39.8148 721.529 38.7132C721.12 38.3894 720.547 38.2719 720.255 38.4522C719.963 38.6325 718.522 38.3658 717.053 37.8596C713.611 36.6738 712.083 37.1192 713.65 38.8512C714.721 40.0341 714.698 40.059 712.656 39.9166C708.835 39.6501 709.885 40.7783 715.494 42.9661C718.544 44.1557 721.17 45.2554 721.33 45.41C721.908 45.9697 720.002 46.6636 718.614 46.3984C717.091 46.1073 713.338 47.742 713.338 48.6965C713.338 49.0134 712.745 49.8253 712.02 50.5006C710.809 51.6286 710.559 51.6543 708.94 50.8168C707.424 50.0331 706.939 50.0249 705.482 50.7588C704.551 51.2283 702.958 51.8122 701.943 52.0564C700.928 52.3007 699.753 52.787 699.331 53.1371C698.091 54.1662 700.278 57.1616 703.357 58.6522C705.034 59.464 706.248 60.5519 706.609 61.5657C706.926 62.4556 707.598 63.917 708.102 64.8134C708.923 66.2742 708.916 66.4823 708.034 66.821C707.387 67.0693 707.196 67.5669 707.478 68.2719C707.714 68.8621 707.98 70.0381 708.07 70.8853C708.16 71.7324 708.432 72.8858 708.674 73.4482C708.989 74.1803 708.729 74.593 707.758 74.9013C706.677 75.2444 705.948 74.831 704.171 72.8657C702.944 71.5094 700.897 69.642 699.623 68.7161C698.348 67.7901 696.065 65.3821 694.549 63.3651C691.874 59.8071 691.82 59.6449 692.707 57.9285C693.21 56.9555 693.632 55.5218 693.644 54.7425C693.656 53.9632 694.047 52.637 694.513 51.7954C695.402 50.1879 695.06 48.9045 693.157 46.7221C691.908 45.2891 689.686 46.3633 690.246 48.1291C690.762 49.7559 689.178 50.283 687.356 49.0907C686.567 48.5737 684.748 47.9637 683.316 47.7351C680.856 47.3425 680.673 47.418 680.036 49.0902C679.665 50.0642 679.509 51.6039 679.69 52.5118C679.972 53.9264 679.776 54.2158 678.321 54.5355C677.33 54.753 675.635 54.4957 674.253 53.9182C672.734 53.2839 671.305 53.0921 670.276 53.3847C669.392 53.636 666.404 53.8641 663.635 53.8917C659.25 53.9353 658.405 54.1267 657.072 55.3787C656.231 56.169 655.22 58.1098 654.826 59.6916C654.432 61.2734 653.71 63.1847 653.221 63.939C652.376 65.2427 652.458 65.3745 654.872 66.6063C657.493 67.9433 660.351 68.2955 662.517 67.5486C664.188 66.9724 669.285 70.9463 670.876 74.0659C671.528 75.3437 672.606 76.6805 673.271 77.0364C675.787 78.3833 676.299 87.2202 674.194 92.9976C672.737 96.9977 671.106 98.3056 668.712 97.3952C667.797 97.0473 666.956 96.7627 666.843 96.7627C666.729 96.7627 666.044 97.9001 665.319 99.2903C664.368 101.116 664.182 102.035 664.652 102.601C665.549 103.683 664.885 105.09 663.09 105.908C662.261 106.285 661.583 106.863 661.583 107.191C661.583 107.519 663.511 109.114 665.867 110.735C668.864 112.798 670.466 114.383 671.2 116.012C671.778 117.292 672.138 118.441 672 118.566C671.862 118.69 670.603 119.37 669.201 120.076L666.653 121.361L665.12 117.842C663.404 113.903 661.932 112.319 659.339 111.621C658.033 111.269 657.578 110.771 657.578 109.692C657.578 108.703 656.939 107.863 655.581 107.068C653.603 105.909 653.564 105.91 651.459 107.211C649.352 108.513 649.328 108.514 648.681 107.305C648.322 106.634 648.028 105.661 648.028 105.143C648.028 104.624 647.511 103.922 646.878 103.584C645.936 103.08 645.342 103.384 643.612 105.256C642.448 106.515 640.958 107.851 640.3 108.226C639.279 108.806 639.224 109.052 639.928 109.9C640.382 110.447 641.949 111.563 643.41 112.379C645.734 113.678 646.178 113.752 646.962 112.968C647.707 112.223 648.313 112.196 650.562 112.806L653.266 113.54L651.759 114.547C648.964 116.415 648.083 117.396 647.684 119.082C647.356 120.465 647.552 120.882 648.794 121.448C649.623 121.825 650.883 123.332 651.594 124.796C652.306 126.26 653.726 127.954 654.752 128.559C657.007 129.891 657.661 131.307 656.358 132.035C655.144 132.715 655.724 133.73 657.326 133.73C659.245 133.73 659.256 134.875 657.401 141.482C655.155 149.483 653.128 152.152 647.822 154.093C645.733 154.857 643.192 155.529 642.175 155.585C639.812 155.716 637.98 156.716 636.381 158.749L635.112 160.362L634.52 158.805C633.748 156.775 631.977 156.264 629.436 157.339C627.107 158.325 625.571 159.896 624.952 161.928C624.398 163.746 626.36 166.944 629.609 169.517C632.277 171.63 635.269 176.931 635.972 180.788C636.583 184.143 635.5 186.345 632.595 187.655C631.271 188.252 630.033 189.231 629.842 189.83C629.386 191.27 626.65 193.062 626.148 192.25C625.939 191.912 625.931 191.122 626.13 190.496C626.329 189.869 626.319 188.906 626.108 188.356C625.805 187.565 625.468 187.493 624.495 188.014C623.482 188.556 623.091 188.419 622.273 187.233C620.262 184.317 614.434 179.632 612.818 179.632C612.25 179.632 612.03 180.316 612.127 181.788C612.205 182.974 611.964 185.287 611.59 186.927C610.982 189.599 611.044 190.089 612.191 191.64C612.895 192.592 613.646 194.068 613.859 194.92C614.077 195.785 615.859 197.76 617.896 199.395C621.293 202.119 621.651 202.657 623.08 207.182C623.925 209.855 624.616 212.305 624.616 212.627C624.616 213.672 623.328 213.248 620.642 211.319C617.866 209.325 616.092 206.17 614.613 200.594C613.971 198.173 613.267 197.135 611.269 195.665C608.819 193.862 608.744 193.705 608.942 190.722C609.054 189.028 609.332 186.626 609.559 185.385C609.879 183.638 609.614 182.387 608.387 179.84C607.515 178.031 606.484 175.253 606.096 173.667C605.229 170.122 604.004 169.529 601.839 171.603C600.944 172.461 600.038 173.163 599.827 173.163C598.846 173.163 597.499 171.075 597.822 170.057C598.409 168.207 594.799 161.761 592.687 160.886C591.531 160.407 590.475 159.246 589.767 157.678C588.539 154.953 587.161 153.911 585.784 154.664C585.284 154.938 583.284 155.488 581.34 155.886C577.775 156.618 576.496 157.697 576.984 159.563C577.163 160.251 576.539 160.914 575.044 161.628C573.831 162.206 572.524 163.369 572.14 164.212C571.756 165.055 570.91 165.914 570.26 166.12C569.611 166.327 568.608 167.269 568.033 168.216C567.457 169.162 565.744 170.891 564.224 172.059C562.145 173.657 561.496 174.551 561.6 175.674C562.204 182.245 561.277 187.742 559.014 191.006C556.808 194.191 556.653 194.279 554.786 193.429C553.758 192.96 553.126 192.046 552.864 190.65C552.649 189.505 551.408 186.281 550.106 183.484C542.228 166.564 541.063 163.335 541.734 160.279C542.188 158.215 541.1 155.099 540.048 155.452C539.627 155.593 539.274 156.101 539.266 156.58C539.213 159.392 536.054 159.824 533.586 157.356L531.95 155.721L533.357 155.201C534.94 154.615 534.795 153.036 533.185 153.325C532.613 153.428 531.303 152.804 530.275 151.939C529.246 151.074 528.168 150.366 527.878 150.366C527.588 150.366 527.173 149.808 526.957 149.127C526.389 147.338 523.121 145.781 521.483 146.52C520.009 147.184 506.635 147.045 504.396 146.342C503.59 146.089 502.098 144.93 501.082 143.766C499.245 141.664 499.216 141.655 496.461 142.398C493.85 143.102 493.47 143.036 489.953 141.26C486.914 139.726 486.004 138.899 485.066 136.818C483.869 134.164 481.21 132.242 479.594 132.862C479.085 133.057 478.49 134.028 478.273 135.019C477.96 136.442 478.279 137.366 479.79 139.421C480.841 140.851 481.987 143.081 482.336 144.377C483.086 147.16 484.565 147.988 485.792 146.31C486.532 145.298 486.732 145.262 487.233 146.056C487.553 146.563 487.726 147.254 487.617 147.593C487.274 148.658 490.83 150.411 492.488 149.995C493.327 149.784 495.118 148.356 496.469 146.822C498.598 144.403 499.341 144.24 498.977 146.271C498.732 147.638 499.808 149.24 501.588 150.16C504.337 151.581 508.167 154.747 508.167 155.599C508.167 155.991 507.447 156.985 506.567 157.806C505.687 158.628 504.42 160.366 503.752 161.669C502.129 164.835 497.424 169.466 495.83 169.466C493.989 169.466 491.25 171.021 490.159 172.685C489.643 173.473 488.284 174.586 487.141 175.156C481.285 178.08 474.234 181.044 472.25 181.416C470.128 181.814 469.957 181.718 468.833 179.501C468.182 178.218 467.443 175.643 467.192 173.779C466.864 171.355 466.23 169.814 464.962 168.366C463.987 167.253 463.19 166.075 463.19 165.748C463.19 165.422 462.078 164.009 460.719 162.608C459.027 160.864 457.933 158.972 457.247 156.6C456.697 154.696 455.577 152.307 454.758 151.29C449.104 144.268 447.429 141.792 446.586 139.207C445.469 135.78 444.525 135.226 444.089 137.743L443.779 139.53L441.695 136.898C438.483 132.843 438.078 134.687 441.093 139.637C442.52 141.98 444.795 146.115 446.148 148.826C447.501 151.536 449.255 154.613 450.046 155.661C450.86 156.741 451.483 158.428 451.483 159.552C451.483 161.874 452.176 163.323 454.897 166.693C455.991 168.049 457.073 170.028 457.3 171.091C457.591 172.455 458.78 173.881 461.337 175.931C465.222 179.048 467.74 182.301 468.365 185.012C468.6 186.03 469.489 187.076 470.617 187.659C472.335 188.547 472.94 188.523 478.37 187.346C481.609 186.645 485.04 185.667 485.995 185.173L487.731 184.275L488.143 186.714C488.517 188.93 488.114 189.998 483.728 198.41C479.012 207.455 478.791 207.754 474.102 211.456C471.462 213.54 468.7 216.091 467.964 217.126C467.227 218.16 464.871 220.953 462.728 223.333C456.472 230.278 455.622 236.386 459.771 244.574C460.825 246.653 461.236 248.227 460.986 249.222C460.779 250.05 460.912 252.141 461.282 253.868C461.866 256.588 461.8 257.315 460.79 259.293C459.333 262.147 458.174 263.173 454.102 265.214C452.323 266.106 450.867 267.098 450.867 267.42C450.867 267.742 449.62 269.41 448.095 271.127C446.57 272.844 445.322 274.528 445.322 274.869C445.322 275.21 445.894 276.61 446.592 277.979C448.687 282.085 447.28 285.06 442.259 287.139C440.142 288.016 439.447 289.806 439.971 293.032C440.245 294.723 440.071 295.285 439.113 295.798C438.452 296.152 437.256 297.469 436.456 298.725C433.931 302.692 426.671 309.71 423.372 311.374C420.62 312.762 419.916 312.884 417.894 312.326C416.111 311.834 414.672 311.912 411.683 312.663C406.842 313.879 407.356 313.929 405.481 312.054L405.481 312.054ZM486.633 115.539C488.224 114.716 488.451 114.263 488.451 111.917C488.451 110.235 488.092 108.938 487.486 108.435C486.956 107.995 486.096 106.812 485.576 105.806C484.715 104.141 484.719 104.011 485.616 104.355C486.801 104.81 488.451 104.263 488.451 103.415C488.451 103.08 487.878 102.001 487.177 101.017C486.122 99.5352 485.699 99.3376 484.713 99.8655C483.915 100.292 483.522 100.296 483.522 99.8774C483.522 99.5335 482.422 98.6911 481.078 98.0053C478.104 96.4879 477.045 94.8066 477.973 93.0731C478.675 91.7611 481.184 90.8418 482.255 91.5038C483.699 92.3964 484.125 91.0806 482.933 89.4072C480.043 85.3489 476.02 85.616 471.03 90.1974C467.81 93.1538 467.53 93.9395 469.351 94.9142C470.029 95.2769 470.583 95.986 470.583 96.49C470.583 96.9939 471.679 98.5952 473.019 100.048C476.104 103.395 476.67 104.924 476.288 108.885L475.981 112.074L480.213 114.246C482.542 115.441 484.529 116.432 484.631 116.448C484.732 116.465 485.634 116.056 486.633 115.539H486.633ZM469.659 287.642C467.92 286.656 467.672 286.135 467.218 282.498C466.855 279.592 467.006 278.96 468.745 276.135C470.512 273.264 470.639 272.71 470.249 269.591C469.687 265.088 470.644 262.721 473.262 262.147C475.728 261.606 481.064 256.895 482.343 254.13L483.32 252.017L483.999 253.507C485.708 257.257 485.534 258.905 482.561 267.13C480.97 271.531 479.264 276.795 478.769 278.829C477.185 285.336 476.284 286.905 473.689 287.682C470.926 288.51 471.194 288.513 469.659 287.642V287.642ZM773.164 276.931C771.199 274.78 770.022 272.934 770.022 272.002C770.022 269.934 770.354 270.115 772.132 273.149C772.982 274.599 774.519 276.592 775.547 277.577C776.574 278.561 777.415 279.593 777.415 279.868C777.415 281.053 776.104 280.147 773.164 276.931V276.931ZM498.309 276.056C498.309 275.717 498.586 275.44 498.925 275.44C499.264 275.44 499.542 275.717 499.542 276.056C499.542 276.395 499.264 276.672 498.925 276.672C498.586 276.672 498.309 276.395 498.309 276.056ZM822.768 274.932C822.551 274.58 822.673 274.107 823.04 273.88C823.955 273.315 824.28 273.765 823.669 274.753C823.341 275.283 823.024 275.346 822.768 274.932V274.932ZM502.622 273.936C502.622 273.787 502.899 273.493 503.238 273.283C503.577 273.074 503.854 273.196 503.854 273.555C503.854 273.914 503.577 274.208 503.238 274.208C502.899 274.208 502.622 274.085 502.622 273.936ZM806.745 267.683C806.145 266.119 806.907 265.571 808.605 266.344C810.071 267.012 810.103 267.115 809.082 267.862C807.653 268.906 807.202 268.872 806.745 267.683ZM810.649 264.943C809.445 264.199 810.279 263.604 812.195 263.841C813.696 264.027 813.73 264.094 812.658 264.755C811.973 265.177 811.153 265.254 810.649 264.943V264.943ZM781.882 262.682C780.617 259.957 781.061 258.91 782.369 261.533C783.731 264.262 783.754 264.351 783.115 264.345C782.861 264.342 782.306 263.594 781.882 262.682V262.682ZM784.241 262.244C784.215 261.595 784.36 261.231 784.565 261.436C784.77 261.641 784.792 262.172 784.614 262.617C784.417 263.108 784.271 262.962 784.241 262.244H784.241ZM834.401 256.329C833.837 255.417 834.371 254.95 835.687 255.207C836.65 255.395 836.66 255.495 835.79 256.216C835.098 256.79 834.705 256.822 834.401 256.329V256.329ZM470.275 253.259C470.066 252.92 470.188 252.643 470.547 252.643C470.906 252.643 471.2 252.92 471.2 253.259C471.2 253.598 471.077 253.875 470.928 253.875C470.778 253.875 470.485 253.598 470.275 253.259ZM740.756 247.471C736.857 246.241 735.089 245.099 733.554 242.818C731.801 240.213 728.593 238.241 726.955 238.761C726.292 238.971 725.177 240.114 724.477 241.301C723.285 243.321 723.056 243.432 720.89 243.047C719.617 242.821 717.839 241.949 716.939 241.11C715.795 240.044 714.918 239.707 714.024 239.99C713.322 240.213 712.304 240.148 711.762 239.845C710.915 239.371 710.998 239.148 712.353 238.261C713.922 237.233 713.924 237.219 712.872 235.011C712.026 233.238 710.859 232.314 707.045 230.396C704.421 229.077 701.456 227.998 700.455 227.998C698.163 227.998 697.217 225.886 698.943 224.624C699.97 223.873 699.82 223.687 697.141 222.385C694.297 221.004 694.257 220.945 695.615 220.191C696.383 219.765 697.619 219.406 698.362 219.394C699.806 219.371 701.632 221.453 701.632 223.123C701.632 223.68 702.231 224.897 702.963 225.828C704.275 227.496 704.309 227.503 705.274 226.298C705.812 225.626 707.531 224.344 709.093 223.448L711.933 221.821L715.87 223.597C718.036 224.574 721.11 225.842 722.701 226.416C724.293 226.989 727.476 228.694 729.776 230.205C734.167 233.089 736.074 235.52 734.98 236.838C734.088 237.913 737.592 242.808 741.218 245.554C745.204 248.573 745.136 248.852 740.756 247.471V247.471ZM767.57 247.421C767.084 246.835 767.037 246.482 767.446 246.482C768.19 246.482 769.058 247.651 768.631 248.078C768.476 248.233 767.998 247.937 767.57 247.421V247.421ZM664.047 244.913C663.154 244.419 662.896 244.056 663.432 244.049C664.532 244.034 666.292 245.059 665.877 245.474C665.717 245.634 664.894 245.382 664.047 244.913ZM674.464 244.099C676.211 241.645 678.946 240.595 681.474 241.407C683.316 241.998 683.345 242.048 681.882 242.106C681.017 242.141 678.997 243.001 677.394 244.017C673.736 246.337 672.853 246.362 674.464 244.099V244.099ZM763.861 244.942C763.028 243.938 763.227 243.813 764.734 244.391C765.27 244.597 765.709 245.013 765.709 245.315C765.709 246.168 764.711 245.966 763.861 244.942V244.942ZM766.746 244.398C766.515 243.794 766.343 242.838 766.364 242.273C766.39 241.592 766.604 241.747 766.998 242.732C767.325 243.55 767.497 244.507 767.38 244.858C767.263 245.208 766.978 245.002 766.746 244.398ZM814.383 244.978C814.383 244.828 814.66 244.535 814.999 244.325C815.338 244.116 815.615 244.238 815.615 244.597C815.615 244.956 815.338 245.25 814.999 245.25C814.66 245.25 814.383 245.127 814.383 244.978ZM656.804 242.39C656.379 242.211 656.187 241.81 656.379 241.5C656.849 240.739 660.798 240.781 661.275 241.553C661.485 241.892 661.293 242.173 660.849 242.177C660.406 242.182 659.488 242.305 658.811 242.451C658.133 242.597 657.23 242.57 656.804 242.39V242.39ZM665.952 241.928C664.832 240.579 666.122 240.168 669.025 240.95C671.949 241.737 671.939 241.86 668.908 242.407C667.334 242.691 666.469 242.551 665.952 241.928V241.928ZM758.458 241.553C758.032 240.87 757.956 240.321 758.289 240.321C758.618 240.321 759.185 240.875 759.548 241.553C759.91 242.231 759.987 242.785 759.718 242.785C759.448 242.785 758.882 242.231 758.458 241.553V241.553ZM762.317 240.933C760.67 239.113 761.551 238.827 763.247 240.631C764.041 241.477 764.409 242.169 764.063 242.169C763.718 242.169 762.932 241.613 762.317 240.933V240.933ZM646.796 240.826C644.594 240.521 641.488 239.843 639.895 239.32C638.302 238.798 636.425 238.552 635.724 238.775C634.313 239.222 628.312 237.458 628.312 236.596C628.312 234.626 633.836 234.477 636.771 236.367C637.867 237.072 638.73 237.12 641.047 236.6C643.614 236.025 644.149 236.096 645.657 237.211C646.595 237.905 647.642 238.472 647.983 238.472C649.201 238.472 652.899 240.533 652.587 241.038C652.412 241.321 651.938 241.514 651.535 241.467C651.131 241.42 648.999 241.131 646.796 240.826V240.826ZM757.391 237.856C756.778 237.178 756.553 236.624 756.892 236.624C757.231 236.624 758.01 237.178 758.624 237.856C759.237 238.534 759.461 239.088 759.123 239.088C758.784 239.088 758.005 238.534 757.391 237.856ZM753.506 237.076C753.156 236.654 752.691 235.479 752.473 234.464C752.122 232.829 752.161 232.76 752.818 233.851C753.225 234.529 753.954 235.541 754.437 236.101C754.949 236.693 755.07 237.269 754.729 237.48C754.406 237.679 753.856 237.497 753.506 237.076ZM740.457 235.117L738.927 234.269L741.299 233.824C742.605 233.579 744.61 232.555 745.757 231.549C747.008 230.45 747.838 230.052 747.832 230.553C747.818 231.806 747.06 232.771 744.757 234.47C742.351 236.245 742.465 236.228 740.457 235.117V235.117ZM624.881 232.718C622.617 231.428 618.534 226.439 617.205 223.338C616.488 221.665 614.845 218.91 613.554 217.216C612.263 215.521 610.78 213.303 610.26 212.287C609.74 211.27 608.159 209.329 606.748 207.974C603.772 205.116 601.942 202.113 603.189 202.134C604.806 202.162 608.968 204.476 610.753 206.339C615.677 211.48 616.686 212.395 619.01 213.827C621.254 215.209 622.316 216.648 622.423 218.448C622.443 218.787 623.081 219.757 623.84 220.604C624.6 221.452 626.034 223.045 627.026 224.145C628.018 225.245 629.009 226.962 629.228 227.96C629.946 231.226 627.315 234.104 624.881 232.718V232.718ZM500.774 232.311C500.774 231.972 501.051 231.695 501.39 231.695C501.729 231.695 502.006 231.972 502.006 232.311C502.006 232.65 501.729 232.927 501.39 232.927C501.051 232.927 500.774 232.65 500.774 232.311ZM663.736 232.305C663.525 231.963 663.523 231.144 663.73 230.485C663.94 229.825 663.685 228.637 663.164 227.841C662.306 226.532 662.314 226.257 663.251 224.92C663.819 224.108 664.49 221.928 664.742 220.075C665.052 217.789 665.664 216.241 666.647 215.258C667.992 213.913 668.33 213.854 671.353 214.427C673.948 214.919 674.969 214.858 676.382 214.128C678.748 212.904 678.921 212.959 678.135 214.683C677.137 216.875 675.141 217.576 673.037 216.473C669.279 214.505 664.294 217.43 666.924 220.06C667.891 221.027 668.426 221.115 670.217 220.602C673.286 219.721 674.496 219.883 672.59 220.919C670.433 222.091 670.023 223.392 671.135 225.542C671.641 226.52 672.055 228.037 672.055 228.913C672.055 230.315 671.908 230.427 670.822 229.846C670.143 229.483 669.165 228.172 668.647 226.933C667.713 224.697 667.697 224.689 666.501 225.885C665.452 226.933 665.382 227.399 665.956 229.477C666.474 231.355 666.439 231.977 665.792 232.387C664.704 233.077 664.198 233.057 663.734 232.305H663.736ZM748.27 229.019C747.689 228.133 746.359 226.965 745.314 226.425C744.269 225.885 743.552 225.304 743.722 225.135C744.68 224.176 750.026 228.528 749.571 229.895C749.431 230.315 748.872 229.939 748.27 229.019ZM651.515 226.968C650.585 226.481 649.333 226.239 648.732 226.43C647.199 226.916 641.11 225.677 640.507 224.756C640.027 224.023 638.616 219.509 637.861 216.292C637.653 215.407 637.861 214.259 638.346 213.595C639.051 212.632 639.416 212.558 640.532 213.156C641.711 213.787 641.961 213.679 642.607 212.26C643.012 211.373 644.357 210.13 645.597 209.497C646.911 208.827 648.173 207.573 648.62 206.493C649.136 205.248 650.078 204.411 651.488 203.946C652.642 203.565 654.31 202.305 655.194 201.146C656.078 199.988 657.129 199.04 657.531 199.04C657.932 199.04 659.148 199.955 660.232 201.074L662.204 203.108L660.623 205.233C658.828 207.647 658.922 209.723 660.956 212.58L662.188 214.309L660.653 215.314C659.809 215.867 659.12 216.66 659.121 217.076C659.127 218.487 655.179 226.621 654.189 227.239C653.5 227.67 652.698 227.588 651.515 226.968V226.968ZM687.307 226.957C686.032 226.624 685.855 225.533 687.076 225.533C687.542 225.533 688.846 225.718 689.973 225.944C691.71 226.291 691.84 226.426 690.821 226.825C689.483 227.348 688.888 227.37 687.307 226.957V226.957ZM785.425 219.101C785.425 218.951 785.702 218.657 786.041 218.448C786.38 218.239 786.657 218.361 786.657 218.72C786.657 219.079 786.38 219.372 786.041 219.372C785.702 219.372 785.425 219.25 785.425 219.101ZM685.148 217.429C684.656 216.937 684.627 216.366 685.053 215.568C685.392 214.935 685.505 214.152 685.304 213.827C684.749 212.928 686.141 210.746 687.27 210.746C688.176 210.746 688.172 210.852 687.23 211.893C686.416 212.792 686.325 213.387 686.809 214.66C687.787 217.232 686.724 219.005 685.148 217.429H685.148ZM375.7 215.404C375.7 215.254 375.977 214.961 376.316 214.751C376.655 214.542 376.932 214.664 376.932 215.023C376.932 215.382 376.655 215.675 376.316 215.675C375.977 215.675 375.7 215.553 375.7 215.404ZM802.985 213.827C802.775 213.488 802.898 213.211 803.256 213.211C803.615 213.211 803.909 213.488 803.909 213.827C803.909 214.166 803.787 214.443 803.637 214.443C803.488 214.443 803.194 214.166 802.985 213.827ZM379.396 208.01C379.396 207.861 379.674 207.567 380.013 207.358C380.351 207.148 380.629 207.271 380.629 207.629C380.629 207.988 380.351 208.282 380.013 208.282C379.674 208.282 379.396 208.16 379.396 208.01ZM675.761 198.747C674.585 196.005 674.429 195.882 672.62 196.279C670.817 196.675 670.754 196.627 671.43 195.365C671.989 194.319 672.508 194.112 673.833 194.403C675.111 194.684 675.927 194.4 677.179 193.24C678.09 192.396 678.841 191.207 678.848 190.598C678.868 189.043 681.156 194.258 681.678 197.046C682.074 199.163 682.025 199.278 681.062 198.481C679.633 197.297 678.257 198.525 679.429 199.938C679.897 200.502 679.957 200.888 679.577 200.888C679.224 200.888 678.5 201.056 677.967 201.26C677.251 201.535 676.673 200.876 675.761 198.747V198.747ZM563.423 199.835C562.734 198.716 562.342 193.696 562.84 192.363C563.367 190.95 563.407 190.968 564.977 193.287C566.858 196.068 567.46 197.851 566.839 198.803C566.245 199.714 563.803 200.452 563.423 199.835ZM701.016 196.648C701.016 196.309 701.293 195.861 701.632 195.651C701.971 195.442 702.248 195.548 702.248 195.887C702.248 196.225 701.971 196.674 701.632 196.883C701.293 197.093 701.016 196.987 701.016 196.648ZM797.748 196.575C797.748 196.237 797.87 195.959 798.019 195.959C798.169 195.959 798.462 196.237 798.672 196.575C798.881 196.914 798.759 197.192 798.4 197.192C798.041 197.192 797.748 196.914 797.748 196.575ZM657.887 193.016C657.887 192.752 659.122 191.158 660.632 189.473C662.844 187.004 663.382 186.655 663.404 187.675C663.419 188.371 662.493 189.966 661.346 191.218C659.401 193.341 657.887 194.128 657.887 193.016V193.016ZM671.231 191.372C671.007 190.787 671.052 189.899 671.333 189.398C671.767 188.622 671.947 188.615 672.555 189.348C673.1 190.004 673.076 190.471 672.454 191.321C671.691 192.366 671.614 192.369 671.231 191.372V191.372ZM199.406 188.971C199.784 188.516 199.91 187.962 199.687 187.739C199.464 187.516 199.856 187.333 200.559 187.333C201.533 187.333 201.76 187.626 201.514 188.566C201.327 189.281 200.673 189.798 199.956 189.798C198.992 189.798 198.871 189.616 199.406 188.971ZM675.366 188.808C675.136 188.166 674.836 187.434 674.699 187.179C674.561 186.925 674.71 186.717 675.03 186.717C675.644 186.717 676.51 189.247 676.052 189.705C675.904 189.853 675.595 189.45 675.366 188.808V188.808ZM669.122 187.2C668.257 186.158 669.1 184.674 670.394 184.962C671.206 185.144 671.235 185.4 670.584 186.605C669.956 187.768 669.685 187.878 669.122 187.2V187.2ZM676.406 185.083C675.699 184.184 675.224 183.346 675.349 183.22C675.85 182.719 677.583 183.823 678.504 185.229C679.921 187.391 678.124 187.266 676.406 185.083ZM666.278 182.698C665.729 182.149 665.28 181.381 665.28 180.991C665.28 180.601 665.889 180.891 666.632 181.634C667.376 182.378 667.825 183.146 667.63 183.341C667.435 183.536 666.826 183.247 666.278 182.698ZM182.646 182.61C182.42 182.384 182.235 181.913 182.235 181.562C182.235 181.176 182.522 181.213 182.964 181.655C183.365 182.056 183.55 182.527 183.375 182.702C183.2 182.877 182.872 182.836 182.646 182.61V182.61ZM179.155 181.788C179.155 181.449 179.277 181.172 179.426 181.172C179.576 181.172 179.869 181.449 180.079 181.788C180.288 182.127 180.166 182.404 179.807 182.404C179.448 182.404 179.155 182.127 179.155 181.788ZM208.113 180.556C208.113 180.217 208.235 179.94 208.384 179.94C208.534 179.94 208.827 180.217 209.037 180.556C209.246 180.895 209.124 181.172 208.765 181.172C208.406 181.172 208.113 180.895 208.113 180.556ZM672.475 180.462C671.857 180.114 670.686 179.996 669.873 180.2C668.68 180.499 667.857 180.02 665.624 177.722C662.469 174.476 661.856 173.107 662.781 171.378C663.139 170.71 663.432 169.329 663.432 168.31C663.432 164.966 665.672 165.101 667.314 168.545C668.224 170.452 668.229 170.862 667.374 172.908C666.454 175.111 666.472 175.209 668.114 176.923C669.3 178.161 670.19 178.581 671.127 178.346C671.919 178.147 672.773 178.394 673.24 178.955C674.349 180.292 673.865 181.246 672.475 180.462H672.475ZM204.416 176.588C204.416 176.438 204.693 176.145 205.032 175.935C205.371 175.726 205.648 175.848 205.648 176.207C205.648 176.566 205.371 176.859 205.032 176.859C204.693 176.859 204.416 176.737 204.416 176.588V176.588ZM301.148 174.395C301.148 174.056 301.425 173.779 301.764 173.779C302.103 173.779 302.38 174.056 302.38 174.395C302.38 174.734 302.103 175.011 301.764 175.011C301.425 175.011 301.148 174.734 301.148 174.395ZM202.568 172.003C202.568 171.664 202.845 171.216 203.184 171.006C203.523 170.797 203.8 170.903 203.8 171.241C203.8 171.58 203.523 172.029 203.184 172.238C202.845 172.448 202.568 172.342 202.568 172.003ZM197.335 169.473C197.119 169.124 197.366 169.02 197.915 169.231C198.982 169.64 199.177 170.082 198.291 170.082C197.972 170.082 197.542 169.808 197.335 169.473ZM295.295 169.466C295.085 169.127 295.208 168.85 295.567 168.85C295.925 168.85 296.219 169.127 296.219 169.466C296.219 169.805 296.097 170.082 295.947 170.082C295.798 170.082 295.504 169.805 295.295 169.466V169.466ZM199.795 168.234C199.586 167.895 199.708 167.617 200.067 167.617C200.426 167.617 200.719 167.895 200.719 168.234C200.719 168.572 200.597 168.85 200.447 168.85C200.298 168.85 200.004 168.572 199.795 168.234ZM202.568 168.234C202.568 167.895 202.69 167.617 202.839 167.617C202.989 167.617 203.282 167.895 203.492 168.234C203.701 168.572 203.579 168.85 203.22 168.85C202.861 168.85 202.568 168.572 202.568 168.234ZM160.209 166.593C159.785 166.422 159.439 166.028 159.439 165.718C159.439 164.829 162.158 165.058 163.48 166.057C164.616 166.917 164.583 166.961 162.827 166.933C161.811 166.917 160.632 166.764 160.209 166.593V166.593ZM175.799 166.244C175.247 165.934 174.026 165.85 173.087 166.057C172.147 166.263 170.702 166.161 169.875 165.831C168.546 165.299 168.664 165.236 170.893 165.288C174.168 165.365 175.043 164.831 174.206 163.267C173.611 162.157 173.79 162.072 176.729 162.072C179.573 162.072 183.675 163.376 184.37 164.501C184.832 165.249 176.903 166.861 175.799 166.244ZM187.618 166.633C186.888 165.903 187.795 165.153 189.408 165.153C190.377 165.153 190.868 165.443 190.71 165.923C190.426 166.786 188.266 167.282 187.618 166.633ZM633.372 165.653C631.741 164.022 633.356 162.072 636.338 162.072C637.66 162.072 637.661 162.083 636.527 164.025C635.205 166.289 634.415 166.697 633.372 165.653ZM192.709 165.527C192.709 165.394 193.125 165.125 193.634 164.93C194.142 164.735 194.558 164.844 194.558 165.172C194.558 165.5 194.142 165.769 193.634 165.769C193.125 165.769 192.709 165.66 192.709 165.527V165.527ZM166.076 161.11C165.885 160.92 164.585 160.749 163.185 160.729C161.255 160.703 160.791 160.513 161.265 159.942C161.723 159.391 161.065 158.656 158.8 157.189C154.359 154.311 151.879 153.748 148.896 154.942C146.098 156.062 145.884 156.093 145.884 155.388C145.884 154.099 150.787 152.681 154.318 152.949C157.695 153.206 159.586 153.924 166.216 157.471C171.666 160.387 171.672 160.393 169.913 160.894C167.915 161.464 166.508 161.543 166.076 161.11V161.11ZM170.529 155.911C171.723 155.139 172.377 155.139 172.377 155.911C172.377 156.25 171.753 156.523 170.991 156.518C169.87 156.51 169.782 156.394 170.529 155.911ZM661.213 154.818C660.841 154.572 660.199 153.733 659.789 152.953C659.17 151.778 659.234 151.207 660.164 149.614C661.601 147.153 662.572 146.846 663.038 148.705C663.529 150.659 662.111 155.411 661.213 154.818V154.818ZM174.574 153.997C174.985 153.332 177.306 153.256 177.306 153.909C177.306 154.163 176.614 154.411 175.77 154.459C174.925 154.508 174.387 154.3 174.574 153.997V153.997ZM162.39 148.059C161.405 146.928 161.548 145.437 162.642 145.437C162.993 145.437 163.137 145.978 162.965 146.639C162.792 147.301 162.967 147.956 163.355 148.095C163.742 148.235 163.896 148.527 163.696 148.745C163.497 148.963 162.909 148.654 162.39 148.059V148.059ZM165.969 143.219C165.75 142.647 165.709 142.041 165.879 141.872C166.048 141.702 166.366 142.031 166.586 142.603C166.805 143.174 166.846 143.78 166.676 143.95C166.507 144.119 166.189 143.79 165.969 143.219ZM162.108 142.664C162.108 142.156 162.637 141.74 163.282 141.74C164.325 141.74 164.353 141.843 163.531 142.664C163.023 143.172 162.495 143.588 162.358 143.588C162.221 143.588 162.108 143.172 162.108 142.664V142.664ZM678.835 129.157C678.835 128.674 678.162 127.48 677.339 126.502C675.386 124.181 676.078 122.633 678.391 124.148C680.053 125.237 680.922 127.462 680.309 129.06C679.844 130.272 678.835 130.338 678.835 129.157V129.157ZM200.719 125.449C200.719 125.299 200.996 125.006 201.335 124.796C201.674 124.587 201.951 124.709 201.951 125.068C201.951 125.427 201.674 125.721 201.335 125.721C200.996 125.721 200.719 125.598 200.719 125.449ZM682.269 124.692C681.869 123.651 682.812 122.667 684.226 122.649C685.205 122.637 685.223 124.015 684.257 124.981C683.252 125.986 682.736 125.911 682.269 124.692ZM687.898 122.443C686.702 120.617 685.012 120.366 681.143 121.441C679.57 121.878 678.487 121.882 677.755 121.456C677.163 121.111 677.004 120.821 677.401 120.81C677.799 120.8 678.96 120.089 679.98 119.23C681.298 118.121 682.263 117.775 683.303 118.036C684.406 118.313 685.597 117.783 688.1 115.902C692.974 112.239 693.415 111.084 691.432 107.171C689.529 103.415 690.059 102.206 692.88 103.871C694.932 105.084 696.866 108.557 696.305 110.022C696.102 110.549 696.404 112.203 696.975 113.697C697.782 115.812 697.859 116.702 697.32 117.709C696.529 119.187 694.327 120.175 691.823 120.175C690.419 120.175 690 120.536 689.542 122.135L688.98 124.094L687.898 122.443V122.443ZM438.298 120.34C437.563 119.604 437.954 118.943 439.125 118.943C439.782 118.943 440.492 118.666 440.701 118.327C441.274 117.4 442.251 117.586 441.88 118.552C441.5 119.542 438.832 120.874 438.298 120.34ZM417.288 119.274L415.44 118.427L417.904 118.386C420.974 118.334 423.235 118.909 422.79 119.629C422.295 120.431 419.41 120.245 417.288 119.274V119.274ZM392.399 113.127C389.933 111.865 389.817 111.707 391.104 111.371C392.646 110.968 396.058 111.469 395.989 112.089C395.965 112.301 395.757 112.933 395.527 113.494C395.148 114.416 394.848 114.381 392.399 113.127V113.127ZM380.049 106.462C379.516 104.932 379.558 104.346 380.251 103.654C381.504 102.401 382.477 103.281 382.477 105.667C382.477 108.485 380.931 108.991 380.049 106.462V106.462ZM365.602 106.973C366.039 105.834 367.913 105.642 367.536 106.775C367.395 107.198 366.819 107.634 366.255 107.744C365.54 107.882 365.342 107.649 365.602 106.973V106.973ZM687.53 99.9409C686.402 98.357 686.371 98.0651 687.204 96.876C688.022 95.7079 688.019 95.3578 687.177 93.7282C685.79 91.0479 685.985 90.8857 688.389 92.719C689.577 93.6253 691.922 94.7745 693.599 95.2727C697.066 96.3022 697.903 97.1104 696.095 97.684C695.413 97.9006 694.854 98.4804 694.854 98.9723C694.854 99.6424 694.429 99.758 693.16 99.4332C689.909 98.6013 688.985 98.8045 689.194 100.305C689.449 102.144 689.034 102.053 687.53 99.9409H687.53ZM381.039 100.665C380.325 99.9501 380.594 98.7561 381.553 98.3882C382.221 98.132 382.477 98.4557 382.477 99.5545C382.477 101.033 381.874 101.499 381.039 100.665ZM683.621 87.6747C683.098 87.0817 681.838 84.9324 680.821 82.8985C679.804 80.8647 677.115 77.1297 674.845 74.5986C672.309 71.7708 671.021 69.8958 671.503 69.7351C671.934 69.5913 672.859 70.2356 673.559 71.1668C675.254 73.4242 677.341 75.3842 680.635 77.8115C683.365 79.8235 684.715 81.6858 682.954 81.0097C680.922 80.2302 681.429 82.0805 684.058 85.0405C685.591 86.7661 686.845 88.3073 686.845 88.4654C686.845 89.2148 684.463 88.6307 683.621 87.6747ZM232.758 86.5965C232.758 86.0882 233.026 85.6723 233.355 85.6723C233.683 85.6723 233.792 86.0882 233.597 86.5965C233.402 87.1048 233.133 87.5207 233 87.5207C232.867 87.5207 232.758 87.1048 232.758 86.5965ZM229.538 84.6082L227.243 84.3674L231.562 80.0908C233.938 77.7387 236.192 75.8142 236.572 75.8142C236.972 75.8142 236.852 76.2669 236.286 76.8928C235.003 78.3102 235.878 79.9025 238.222 80.4173C239.245 80.6421 240.265 81.4263 240.659 82.2914C241.292 83.6798 241.184 83.8213 239.05 84.4141C236.81 85.0361 234.137 85.0906 229.538 84.6082V84.6082ZM79.407 80.188C77.2727 78.1943 77.0346 77.3544 78.4499 76.8113C79.7173 76.3249 82.0569 77.9105 82.9436 79.8567C83.8741 81.8989 83.8576 81.9755 82.4876 81.9755C81.8457 81.9755 80.4594 81.1711 79.407 80.188ZM350.746 77.0576C351.424 76.7234 352.758 76.1687 353.71 75.8251C355.808 75.0681 355.461 74.2617 352.807 73.731C350.986 73.3669 350.922 73.2743 351.964 72.5126C352.584 72.0592 352.91 71.396 352.69 71.0387C352.464 70.6737 353.098 70.1069 354.136 69.745C355.152 69.3908 355.984 68.8273 355.984 68.4929C355.984 67.0697 354.699 64.6758 353.986 64.7689C352.341 64.9834 351.579 64.6934 351.844 63.9538C351.996 63.5302 351.871 62.6984 351.566 62.1054C350.773 60.5634 352.595 57.3744 354.289 57.3398C354.543 57.3351 354.682 57.6704 354.597 58.0859C354.513 58.5014 355.094 58.9401 355.889 59.0608L357.335 59.2801L355.954 60.7509L354.572 62.2217L356.13 62.8139C357.801 63.4495 359.413 65.5203 361.054 69.1419C361.84 70.877 362.357 71.3306 363.274 71.0906C365.157 70.5982 365.38 71.8742 363.614 73.0316C362.417 73.8158 362.19 74.2576 362.714 74.7818C363.238 75.3059 362.205 75.6576 358.621 76.1748C355.984 76.5554 352.857 77.0464 351.671 77.2661C350.021 77.5716 349.804 77.5226 350.746 77.0576V77.0576ZM340.356 73.6542C340.145 73.1049 340.386 71.857 340.89 70.8811C341.47 69.7614 341.582 68.9668 341.194 68.7274C340.126 68.0675 340.527 67.2253 342.095 66.8317C342.929 66.6225 343.933 66.0627 344.327 65.5877C345.148 64.5986 348.943 64.4166 349.514 65.339C349.723 65.6772 349.462 66.5707 348.934 67.3244C348.406 68.0782 347.974 69.4321 347.974 70.3331C347.974 71.7072 347.552 72.118 345.355 72.8803C343.915 73.3802 342.287 73.9836 341.738 74.221C341.094 74.4995 340.603 74.2982 340.356 73.6542V73.6542ZM351.671 67.5329C351.671 67.3834 351.948 67.0898 352.287 66.8804C352.626 66.6709 352.903 66.7932 352.903 67.1521C352.903 67.5109 352.626 67.8046 352.287 67.8046C351.948 67.8046 351.671 67.6823 351.671 67.5329ZM78.2327 64.5642C77.6291 63.8369 77.6675 63.498 78.4249 62.8695C79.677 61.8303 80.2981 62.5352 79.5693 64.1685C79.0667 65.2948 78.8839 65.3489 78.2327 64.5642V64.5642ZM77.2692 59.9305C77.0611 59.5938 77.3037 58.9758 77.8083 58.557C78.81 57.7256 79.0192 58.3776 78.1771 59.7066C77.8554 60.2144 77.499 60.3023 77.2692 59.9305ZM37.4451 59.5375C37.4451 59.1041 39.3133 58.346 41.9636 57.704C42.9683 57.4606 43.5623 57.5193 43.3627 57.8422C43.172 58.1509 42.2476 58.5585 41.3087 58.748C40.3698 58.9374 39.1163 59.2802 38.5233 59.5096C37.9303 59.739 37.4451 59.7516 37.4451 59.5375V59.5375ZM403.579 52.6094C402.443 52.1508 402.644 51.4438 403.939 51.3462C404.56 51.2994 405.068 51.6563 405.068 52.1393C405.068 53.0567 404.855 53.1241 403.579 52.6094ZM268.185 49.4603C264.286 47.3341 262.423 44.0675 263.552 41.34C264.087 40.0492 264.103 39.2375 263.613 38.3215C262.593 36.4151 263.924 34.181 267.328 32.0864C268.945 31.0915 270.559 29.7329 270.916 29.0673C271.903 27.2232 271.024 24.063 269.306 23.2804C268.437 22.8843 267.964 22.2581 268.156 21.7576C268.593 20.6178 266.542 16.7248 264.499 14.8175C262.995 13.4137 262.348 13.2739 257.199 13.2402C250.188 13.1943 248.882 12.8045 248.998 10.7927C249.046 9.95697 249.231 9.27302 249.409 9.27278C249.588 9.27254 252.083 8.98336 254.955 8.63015C258.621 8.17915 261.908 7.24907 265.995 5.50632C272.322 2.8081 272.804 2.75538 287.901 3.11023C292.669 3.22228 297.054 2.86947 302.688 1.92066C307.935 1.03707 311.796 0.703992 313.881 0.955045C315.652 1.16836 318.217 1.02766 319.664 0.637774C323.025 -0.267009 331.755 0.82136 335.188 2.5731C337.218 3.60871 338.292 3.74546 341.718 3.40444C345.418 3.03609 345.697 3.08454 344.585 3.90133C343.907 4.39909 341.828 5.00714 339.964 5.25254C335.92 5.78506 332.204 8.6676 333.189 10.5081C333.614 11.302 333.309 11.9797 331.935 13.2957C330.937 14.252 329.974 15.4948 329.796 16.0574C329.367 17.4089 323.92 19.9244 321.219 20.0182C318.219 20.1223 317.905 20.76 320.225 22.0378C321.321 22.6414 322.921 23.6699 323.78 24.3233L325.343 25.5113L323.93 26.0338C322.847 26.4344 321.969 26.1762 320.167 24.9275C317.722 23.2331 315.091 23.2246 316.495 24.9157C317.042 25.5751 316.91 25.8313 315.886 26.0992C313.597 26.6979 315.216 27.8819 317.741 27.4553C319.348 27.1838 320.252 27.3269 320.755 27.9324C321.353 28.6529 320.573 28.9865 316.085 29.9297C313.122 30.5525 309.173 31.0849 307.309 31.1127C303.847 31.1645 301.352 32.1584 297.681 34.9481C296.484 35.8578 293.941 36.7594 290.965 37.3288C284.744 38.5191 282.642 39.8956 278.893 45.2329C275.883 49.5199 274.067 51.1177 272.19 51.1329C271.682 51.137 269.88 50.3843 268.185 49.4603V49.4603ZM224.499 45.3396C223.176 44.5266 221.554 43.0103 220.896 41.9701C219.61 39.9393 218.424 39.6813 214.953 40.6768C213.778 41.0138 212.459 41.0463 211.932 40.7512C210.108 39.7302 213.403 38.726 217.073 39.1846C219.865 39.5333 220.485 39.434 220.81 38.5857C221.464 36.8814 224.458 35.66 226.122 36.4183C227.147 36.8851 228.078 36.8721 229.387 36.3726C231.147 35.7007 231.171 35.64 230.022 34.7956C229.364 34.3126 228.613 33.9175 228.353 33.9175C228.093 33.9175 227.155 32.6797 226.269 31.167C225.382 29.6542 223.721 27.8378 222.576 27.1306C220.632 25.9287 220.374 25.9076 218.635 26.8071C217.114 27.5935 216.236 27.6485 213.83 27.1083C212.21 26.7446 209.949 26.6222 208.805 26.8361C206.82 27.2073 203.184 26.236 203.184 25.3347C203.184 23.679 208.402 19.9633 211.501 19.4118L213.966 18.9732L212.204 20.8501C209.774 23.4392 210.688 24.6308 213.327 22.3138C214.446 21.331 216.381 20.3357 217.626 20.1021C219.529 19.7452 220.344 19.9779 222.733 21.5603C225.911 23.6658 226.156 23.7222 227.949 22.7629C229.028 22.1852 229.429 22.3438 230.601 23.814C231.412 24.8308 233.223 25.9381 234.988 26.4968C237.802 27.3872 237.995 27.5809 237.995 29.5218C237.995 30.9773 238.415 31.8958 239.403 32.6025C243.538 35.5596 243.448 35.4374 242.553 36.87C241.326 38.8344 240.357 38.9767 237.642 37.5916C235.754 36.628 234.929 36.4959 233.978 37.0047C232.814 37.6274 232.802 37.7605 233.738 39.5716C234.507 41.0581 234.577 41.8086 234.055 42.9551C233.411 44.3678 233.309 44.3896 231.561 43.4858C228.125 41.7091 225.812 42.8782 229.017 44.7715C230.021 45.3647 230.703 46.0764 230.532 46.3531C229.935 47.3187 226.886 46.8065 224.499 45.3396V45.3396ZM351.054 46.1374C351.054 45.855 351.47 45.6239 351.979 45.6239C352.487 45.6239 352.903 45.855 352.903 46.1374C352.903 46.4198 352.487 46.6508 351.979 46.6508C351.47 46.6508 351.054 46.4198 351.054 46.1374ZM201.268 42.8239C200.053 42.1853 199.11 42.1306 197.409 42.6003C194.517 43.3988 193.505 42.8144 194.973 41.1928C196.852 39.1168 198.126 38.7085 200.392 39.4563C202.942 40.2981 204.074 41.5491 203.386 42.7659C202.948 43.5415 202.649 43.5497 201.268 42.8239V42.8239ZM323.637 42.5433C322.62 41.8748 321.326 41.4742 320.761 41.6529C319.983 41.899 319.811 41.6854 320.049 40.7721C320.416 39.3703 325.829 37.3472 327.659 37.928C328.297 38.1305 329.928 37.964 331.283 37.558C333.411 36.9206 333.975 36.9688 335.413 37.9111L337.078 39.0025L335.595 40.1587C334.342 41.1345 332.02 41.9813 326.409 43.5073C325.901 43.6455 324.653 43.2117 323.637 42.5433V42.5433ZM156.358 31.0417C155.511 30.9078 153.447 30.1831 151.772 29.4313L148.726 28.0643L153.004 27.7562C155.357 27.5868 157.282 27.1709 157.282 26.832C157.282 26.4931 155.619 26.0673 153.585 25.8856C150.901 25.6458 150.395 25.4771 151.737 25.2695C153.984 24.9219 154.146 23.9486 152.045 23.4179C150.532 23.0358 150.543 23.0124 152.671 22.0954C156.36 20.506 160.289 20.2016 163.77 21.2353C166.628 22.0841 167.075 22.0805 168.422 21.1976C169.375 20.5732 169.94 20.4687 169.99 20.9079C170.032 21.2858 170.101 21.9184 170.144 22.3137C170.287 23.6485 171.516 23.4758 172.982 21.9148C174.34 20.4697 176.693 19.7775 176.688 20.8248C176.687 21.0789 176.138 22.1841 175.47 23.2808L174.254 25.2747L176.242 26.312L178.23 27.3493L174.966 28.8393C172.02 30.1838 171.416 30.2608 168.775 29.6273C166.215 29.0131 165.481 29.0834 162.901 30.1892C159.987 31.4381 159.373 31.5182 156.358 31.0417V31.0417ZM181.068 30.6077C180.512 29.9371 180.742 29.6071 182.18 29.0114C183.181 28.5967 184.617 28.4585 185.386 28.7028C186.721 29.1263 186.69 29.1929 184.662 30.2732C182.074 31.6514 181.945 31.6635 181.068 30.6077V30.6077ZM351.054 27.7562C352.249 26.9842 352.903 26.9842 352.903 27.7562C352.903 28.0951 352.279 28.3681 351.517 28.3629C350.396 28.3553 350.307 28.2392 351.054 27.7562V27.7562ZM464.114 26.0469C460.964 24.8026 461.029 24.8706 461.945 23.7663C462.374 23.2498 462.483 22.8184 462.187 22.8076C461.891 22.7968 462.204 22.369 462.882 21.8569C463.56 21.3447 464.119 20.7297 464.124 20.4902C464.146 19.5789 466.654 17.1756 468.427 16.368C469.444 15.9049 472.078 15.3828 474.28 15.208C476.483 15.0331 479.433 14.7127 480.837 14.496C482.33 14.2653 483.547 14.3597 483.772 14.7234C484.209 15.4303 483.375 15.7307 478.593 16.5899C473.848 17.4424 470.996 18.7709 469.117 21.0035C467.138 23.3555 467.072 24.8405 468.889 26.1084L470.275 27.0754L468.427 27.0479C467.41 27.0328 465.47 26.5823 464.114 26.0469V26.0469ZM141.42 24.2604C140.426 23.2668 140.653 23.0504 145.42 20.4407C151.006 17.3829 153.812 16.9769 158.822 18.5023L161.595 19.3465L157.898 20.0795C154.875 20.679 148.468 22.8215 143.408 24.925C142.892 25.1395 142.001 24.8418 141.42 24.2604V24.2604ZM185.932 23.463C185.932 23.1349 185.17 22.4289 184.238 21.894L182.543 20.9215L184.812 21.2783C186.424 21.5318 187.226 21.3808 187.585 20.7566C188.01 20.0143 191.932 18.529 193.495 18.5177C193.758 18.5156 193.544 19.3451 193.019 20.3605C191.782 22.7522 185.932 25.3132 185.932 23.463V23.463ZM195.525 21.664C194.642 20.2357 200.671 18.0248 203.232 18.8376C205.098 19.43 203.851 20.448 200.595 20.9892C199.138 21.2313 197.489 21.6242 196.931 21.8622C196.372 22.1003 195.739 22.0111 195.525 21.664ZM215.198 17.127C211.132 16.8035 207.729 16.4685 207.636 16.3825C207.085 15.8713 208.459 14.2074 209.938 13.5948C211.392 12.9925 212.062 13.0725 214.053 14.0856C215.993 15.073 217.243 15.2372 220.848 14.9774C223.277 14.8023 226.05 14.8577 227.009 15.1004L228.753 15.5419L226.597 16.6942C225.41 17.3279 224.024 17.8169 223.516 17.7808C223.008 17.7446 219.265 17.4504 215.198 17.127ZM392.506 14.6089C389.48 13.0595 389.188 12.3568 391.565 12.3436C392.497 12.3383 393.675 12.035 394.184 11.6693C394.982 11.0946 394.972 11.0476 394.105 11.3225C393.553 11.4974 392.779 11.3178 392.385 10.9237C391.839 10.3786 391.556 10.3883 391.2 10.964C390.87 11.497 390.194 11.56 388.915 11.177C385.666 10.2041 384.942 9.7721 384.942 8.80742C384.942 7.99028 385.756 7.91545 390.795 8.26964C394.632 8.53938 396.648 8.46461 396.648 8.05252C396.648 6.83965 398.358 7.43855 398.811 8.81023L399.269 10.1965L399.542 8.81023C399.692 8.04777 400.211 7.42395 400.696 7.42395C401.18 7.42395 401.577 7.09123 401.577 6.68459C401.577 6.10953 401.741 6.10953 402.316 6.68459C402.746 7.11467 404.808 7.42395 407.245 7.42395C411.65 7.42395 412.685 8.21151 409.747 9.32846C408.22 9.90892 405.565 9.74472 402.655 8.8899C402.062 8.7157 401.579 8.7998 401.581 9.07678C401.585 9.64538 405.047 11.7369 405.984 11.7369C406.32 11.7369 406.983 12.1258 407.458 12.6012C408.2 13.3429 408.194 13.515 407.414 13.8141C406.915 14.0058 406.506 13.8633 406.506 13.4973C406.506 13.0671 405.722 12.979 404.289 13.2479C402.737 13.5391 402.198 13.4592 402.494 12.9814C402.726 12.6061 402.58 11.8952 402.171 11.4018C401.381 10.4498 399.113 10.1584 399.113 11.0088C399.113 11.2861 398.211 12.5092 397.11 13.7268L395.108 15.9407L392.506 14.6089L392.506 14.6089ZM229.061 13.2535C227.993 12.6265 226.482 12.4449 224.132 12.661C221.936 12.8631 220.247 12.6889 219.332 12.1659C218.072 11.4449 218.38 11.3628 222.228 11.3939C227.04 11.4329 229.153 10.4028 226.547 9.28866C225.309 8.75937 225.49 8.71132 227.612 9.00529C230.382 9.38906 231.459 8.64684 229.949 7.39413C228.34 6.05836 230.11 5.64368 235.836 6.0147C239.38 6.24429 241.607 6.11552 242.517 5.62835C244.261 4.69507 243.577 3.50705 241.584 4.00732C240.206 4.35307 230.646 3.78571 231.049 3.38216C231.337 3.09376 244.882 1.8393 253.776 1.2773C258.389 0.985791 263.519 0.579145 265.174 0.373644L268.185 0L263.215 2.38737C258.555 4.6257 250.977 6.80782 247.864 6.80782C247.106 6.80782 244.927 7.63959 243.022 8.65621C241.117 9.67282 239.176 10.5046 238.71 10.5046C238.243 10.5046 236.227 11.3329 234.231 12.3452C232.235 13.3575 230.601 14.1794 230.601 14.1717C230.601 14.164 229.908 13.7508 229.061 13.2535V13.2535ZM217.047 7.62448C214.06 6.96374 213.951 6.71519 216.145 5.5779C219.344 3.92015 222.371 3.49526 223.747 4.51084C224.836 5.3149 224.773 5.43918 222.633 6.70167C220.403 8.01746 219.498 8.16695 217.047 7.62448V7.62448Z" fill="black"/>
<circle cx="269" cy="121" r="3" fill="#C90000"/>
<circle cx="278" cy="85" r="3" fill="#C90000"/>
<circle cx="541" cy="337" r="3" fill="#C90000"/>
<circle cx="781" cy="82" r="3" fill="#C90000"/>
<circle cx="522" cy="188" r="3" fill="#C90000"/>
<circle cx="54" cy="270" r="3" fill="#C90000"/>
<circle cx="244" cy="165" r="3" fill="#C90000"/>
<circle cx="112" cy="203" r="3" fill="#C90000"/>
<circle cx="262" cy="91" r="3" fill="#C90000"/>
<circle cx="327" cy="270" r="3" fill="#C90000"/>
<circle cx="343" cy="340" r="3" fill="#C90000"/>
<circle cx="272" cy="94" r="3" fill="#C90000"/>
<circle cx="544" cy="276" r="3" fill="#C90000"/>
<circle cx="579" cy="337" r="3" fill="#C90000"/>
<circle cx="775" cy="63" r="3" fill="#C90000"/>
<circle cx="769" cy="105" r="3" fill="#C90000"/>
<circle cx="769" cy="85" r="3" fill="#C90000"/>
<circle cx="707" cy="150" r="3" fill="#C90000"/>
<circle cx="766" cy="171" r="3" fill="#C90000"/>
<circle cx="362" cy="11" r="3" fill="#C90000"/>
<circle cx="544" cy="251" r="3" fill="#C90000"/>
<circle cx="512" cy="200" r="3" fill="#C90000"/>
<circle cx="529" cy="301" r="3" fill="#C90000"/>
<circle cx="470" cy="340" r="3" fill="#C90000"/>
<circle cx="333" cy="257" r="3" fill="#C90000"/>
<circle cx="296" cy="288" r="3" fill="#C90000"/>
<circle cx="309" cy="223" r="3" fill="#C90000"/>
<circle cx="349" cy="231" r="3" fill="#C90000"/>
<circle cx="123" cy="282" r="3" fill="#C90000"/>
<circle cx="126" cy="206" r="3" fill="#C90000"/>
<circle cx="38" cy="149" r="3" fill="#C90000"/>
<circle cx="21" cy="99" r="3" fill="#C90000"/>
<circle cx="32" cy="88" r="3" fill="#C90000"/>
<circle cx="68" cy="307" r="3" fill="#C90000"/>
<circle cx="301" cy="99" r="3" fill="#C90000"/>
<circle cx="18" cy="10" r="3" fill="#C90000"/>
<circle cx="722" cy="130" r="3" fill="#C90000"/>
<circle cx="588" cy="254" r="3" fill="#C90000"/>
<circle cx="591" cy="304" r="3" fill="#C90000"/>
<circle cx="278" cy="209" r="3" fill="#C90000"/>
<circle cx="287" cy="185" r="3" fill="#C90000"/>
</g>
<defs>
<clipPath id="clip0_1_2">
<rect width="800" height="370" fill="white"/>
</clipPath>
</defs>
</svg>